ISO-10303-21;
HEADER;
FILE_DESCRIPTION (( 'STEP AP214' ),
    '1' );
FILE_NAME ('Lollipop antena mount.STEP',
    '2026-05-19T18:14:40',
    ( '' ),
    ( '' ),
    'SwSTEP 2.0',
    'SolidWorks 2021',
    '' );
FILE_SCHEMA (( 'AUTOMOTIVE_DESIGN' ));
ENDSEC;

DATA;
#1 = ADVANCED_FACE ( 'NONE', ( #859 ), #293, .T. ) ;
#2 = FACE_BOUND ( 'NONE', #69, .T. ) ;
#3 = CARTESIAN_POINT ( 'NONE',  ( -4.951929810480172556, 0.000000000000000000, 6.000000000000002665 ) ) ;
#4 = AXIS2_PLACEMENT_3D ( 'NONE', #485, #726, #865 ) ;
#5 = TOROIDAL_SURFACE ( 'NONE', #315, 10.00000000000000355, 8.000000000000001776 ) ;
#6 = ORIENTED_EDGE ( 'NONE', *, *, #226, .T. ) ;
#7 = ADVANCED_FACE ( 'NONE', ( #723, #875 ), #893, .F. ) ;
#8 = CYLINDRICAL_SURFACE ( 'NONE', #578, 11.50000000000000178 ) ;
#9 = CARTESIAN_POINT ( 'NONE',  ( 0.000000000000000000, 7.113248654051863795, 14.99999999999999645 ) ) ;
#10 =( BOUNDED_CURVE ( )  B_SPLINE_CURVE ( 3, ( #311, #576, #512, #521 ),
 .UNSPECIFIED., .F., .F. ) 
 B_SPLINE_CURVE_WITH_KNOTS ( ( 4, 4 ),
 ( 0.000000000000000000, 1.512792793162411220 ),
 .UNSPECIFIED. ) 
 CURVE ( )  GEOMETRIC_REPRESENTATION_ITEM ( )  RATIONAL_B_SPLINE_CURVE ( ( 1.000000000000000000, 0.8182092658019173292, 0.8182092658019173292, 1.000000000000000000 ) ) 
 REPRESENTATION_ITEM ( '' )  );
#11 = VERTEX_POINT ( 'NONE', #304 ) ;
#12 = CARTESIAN_POINT ( 'NONE',  ( -16.20233139056659866, 10.00000000000000000, 3.815022834434696364 ) ) ;
#13 = EDGE_CURVE ( 'NONE', #109, #603, #517, .T. ) ;
#14 = DIRECTION ( 'NONE',  ( -0.000000000000000000, -0.8660254037844384856, -0.5000000000000003331 ) ) ;
#15 = ORIENTED_EDGE ( 'NONE', *, *, #776, .F. ) ;
#16 = EDGE_CURVE ( 'NONE', #708, #11, #141, .T. ) ;
#17 = DIRECTION ( 'NONE',  ( 0.000000000000000000, 0.000000000000000000, -1.000000000000000000 ) ) ;
#18 = DIRECTION ( 'NONE',  ( -0.000000000000000000, -1.000000000000000000, -0.000000000000000000 ) ) ;
#19 = DIRECTION ( 'NONE',  ( 1.734723475976807094E-15, 0.000000000000000000, 1.000000000000000000 ) ) ;
#20 = ORIENTED_EDGE ( 'NONE', *, *, #325, .F. ) ;
#21 = CIRCLE ( 'NONE', #201, 8.500000000000010658 ) ;
#22 = AXIS2_PLACEMENT_3D ( 'NONE', #936, #721, #378 ) ;
#23 = AXIS2_PLACEMENT_3D ( 'NONE', #468, #615, #539 ) ;
#24 = DIRECTION ( 'NONE',  ( 0.000000000000000000, 0.000000000000000000, 1.000000000000000000 ) ) ;
#25 = DIRECTION ( 'NONE',  ( 0.000000000000000000, 0.000000000000000000, 1.000000000000000000 ) ) ;
#26 = ORIENTED_EDGE ( 'NONE', *, *, #84, .F. ) ;
#27 = DIRECTION ( 'NONE',  ( -0.000000000000000000, -0.8660254037844384856, -0.5000000000000003331 ) ) ;
#28 = PLANE ( 'NONE',  #23 ) ;
#29 = EDGE_LOOP ( 'NONE', ( #146 ) ) ;
#30 = DIRECTION ( 'NONE',  ( 0.000000000000000000, 0.000000000000000000, -1.000000000000000000 ) ) ;
#31 = CARTESIAN_POINT ( 'NONE',  ( -0.2500000000000002220, 0.000000000000000000, -2.727178028658929776 ) ) ;
#32 = VERTEX_POINT ( 'NONE', #459 ) ;
#33 = EDGE_CURVE ( 'NONE', #831, #904, #504, .T. ) ;
#34 = CARTESIAN_POINT ( 'NONE',  ( 0.000000000000000000, 45.38823940164500215, 26.70577136594003065 ) ) ;
#35 = AXIS2_PLACEMENT_3D ( 'NONE', #651, #458, #735 ) ;
#36 = VECTOR ( 'NONE', #162, 1000.000000000000000 ) ;
#37 = CARTESIAN_POINT ( 'NONE',  ( -15.00000000000000000, 10.00000000000000000, 0.000000000000000000 ) ) ;
#38 = AXIS2_PLACEMENT_3D ( 'NONE', #590, #530, #232 ) ;
#39 = CIRCLE ( 'NONE', #902, 11.00000000000011191 ) ;
#40 = LINE ( 'NONE', #332, #345 ) ;
#41 = EDGE_LOOP ( 'NONE', ( #627 ) ) ;
#42 =( NAMED_UNIT ( * ) PLANE_ANGLE_UNIT ( ) SI_UNIT ( $, .RADIAN. ) );
#43 = DIRECTION ( 'NONE',  ( -0.000000000000000000, -1.000000000000000000, -0.000000000000000000 ) ) ;
#44 = ORIENTED_EDGE ( 'NONE', *, *, #84, .T. ) ;
#45 = APPLICATION_PROTOCOL_DEFINITION ( 'draft international standard', 'automotive_design', 1998, #289 ) ;
#46 = DIRECTION ( 'NONE',  ( -0.000000000000000000, -1.000000000000000000, 0.000000000000000000 ) ) ;
#47 = PLANE ( 'NONE',  #916 ) ;
#48 = ORIENTED_EDGE ( 'NONE', *, *, #605, .F. ) ;
#49 = EDGE_CURVE ( 'NONE', #864, #864, #112, .T. ) ;
#50 = CARTESIAN_POINT ( 'NONE',  ( 7.384442116008590240, 7.266902106178647180, 14.73386441415806658 ) ) ;
#51 = CIRCLE ( 'NONE', #800, 2.000000000000001776 ) ;
#52 = DIRECTION ( 'NONE',  ( 0.000000000000000000, 0.000000000000000000, -1.000000000000000000 ) ) ;
#53 = VECTOR ( 'NONE', #57, 1000.000000000000000 ) ;
#54 = EDGE_LOOP ( 'NONE', ( #842 ) ) ;
#55 = EDGE_CURVE ( 'NONE', #497, #329, #246, .T. ) ;
#56 = LINE ( 'NONE', #425, #65 ) ;
#57 = DIRECTION ( 'NONE',  ( -0.000000000000000000, 1.000000000000000000, -0.000000000000000000 ) ) ;
#58 = EDGE_CURVE ( 'NONE', #310, #310, #161, .T. ) ;
#59 = ORIENTED_EDGE ( 'NONE', *, *, #55, .F. ) ;
#60 = DIRECTION ( 'NONE',  ( -0.000000000000000000, -0.8660254037844384856, -0.5000000000000003331 ) ) ;
#61 = DIRECTION ( 'NONE',  ( -0.000000000000000000, -1.000000000000000000, -0.000000000000000000 ) ) ;
#62 = ORIENTED_EDGE ( 'NONE', *, *, #776, .T. ) ;
#63 = DIRECTION ( 'NONE',  ( 0.000000000000000000, 0.000000000000000000, -1.000000000000000000 ) ) ;
#64 = FACE_OUTER_BOUND ( 'NONE', #333, .T. ) ;
#65 = VECTOR ( 'NONE', #499, 1000.000000000000000 ) ;
#66 = EDGE_LOOP ( 'NONE', ( #26 ) ) ;
#67 = DIRECTION ( 'NONE',  ( -0.000000000000000000, -0.8660254037844384856, -0.5000000000000003331 ) ) ;
#68 = DIRECTION ( 'NONE',  ( 0.000000000000000000, 0.8660254037844384856, 0.5000000000000003331 ) ) ;
#69 = EDGE_LOOP ( 'NONE', ( #662 ) ) ;
#70 = EDGE_LOOP ( 'NONE', ( #447 ) ) ;
#71 = EDGE_CURVE ( 'NONE', #572, #95, #451, .T. ) ;
#72 = LINE ( 'NONE', #877, #522 ) ;
#73 = DIRECTION ( 'NONE',  ( 0.000000000000000000, 1.000000000000000000, 0.000000000000000000 ) ) ;
#74 = PRODUCT ( 'Lollipop antena mount', 'Lollipop antena mount', '', ( #300 ) ) ;
#75 = DIRECTION ( 'NONE',  ( 0.000000000000000000, 0.8660254037844387076, 0.4999999999999998890 ) ) ;
#76 = EDGE_LOOP ( 'NONE', ( #473, #351, #453, #600 ) ) ;
#77 = CARTESIAN_POINT ( 'NONE',  ( 19.95961698608723367, 0.000000000000000000, 15.73696919204314248 ) ) ;
#78 = DIRECTION ( 'NONE',  ( 0.000000000000000000, 1.000000000000000000, 0.000000000000000000 ) ) ;
#79 = CARTESIAN_POINT ( 'NONE',  ( 7.746877602391748496, 0.000000000000000000, 13.07257493707010099 ) ) ;
#80 = AXIS2_PLACEMENT_3D ( 'NONE', #770, #364, #421 ) ;
#81 = AXIS2_PLACEMENT_3D ( 'NONE', #202, #60, #710 ) ;
#82 = ORIENTED_EDGE ( 'NONE', *, *, #508, .F. ) ;
#83 = CLOSED_SHELL ( 'NONE', ( #442, #156, #772, #1, #660, #327, #204, #738, #229, #389, #177, #354, #394, #649, #184, #154, #445, #356, #709, #586, #874, #755, #7, #245, #490, #404, #187, #519, #118, #810, #132, #396, #553 ) ) ;
#84 = EDGE_CURVE ( 'NONE', #215, #215, #283, .T. ) ;
#85 = EDGE_CURVE ( 'NONE', #95, #665, #652, .T. ) ;
#86 = DIRECTION ( 'NONE',  ( 0.000000000000000000, 0.000000000000000000, 1.000000000000000000 ) ) ;
#87 = VERTEX_POINT ( 'NONE', #79 ) ;
#88 = CARTESIAN_POINT ( 'NONE',  ( -6.176405174240644946, 4.226497308103741801, 20.00000000000000000 ) ) ;
#89 = DIRECTION ( 'NONE',  ( -0.000000000000000000, -1.000000000000000000, -0.000000000000000000 ) ) ;
#90 = FACE_BOUND ( 'NONE', #812, .T. ) ;
#91 = ORIENTED_EDGE ( 'NONE', *, *, #508, .T. ) ;
#92 = DIRECTION ( 'NONE',  ( -0.000000000000000000, -1.000000000000000000, -0.000000000000000000 ) ) ;
#93 = CARTESIAN_POINT ( 'NONE',  ( -4.951929810480172556, 10.00000000000000000, 6.000000000000002665 ) ) ;
#94 = CIRCLE ( 'NONE', #35, 3.999999999999998224 ) ;
#95 = VERTEX_POINT ( 'NONE', #3 ) ;
#96 = CONICAL_SURFACE ( 'NONE', #749, 2.500000000000000444, 0.7853981633974466137 ) ;
#97 = CIRCLE ( 'NONE', #222, 5.199999999999999289 ) ;
#98 = CARTESIAN_POINT ( 'NONE',  ( -7.054656334662484873, 5.314258684837817270, 18.11594202898551131 ) ) ;
#99 = DIRECTION ( 'NONE',  ( -0.000000000000000000, -1.000000000000000000, -0.000000000000000000 ) ) ;
#100 = ORIENTED_EDGE ( 'NONE', *, *, #608, .T. ) ;
#101 = EDGE_CURVE ( 'NONE', #329, #165, #641, .T. ) ;
#102 = FACE_OUTER_BOUND ( 'NONE', #212, .T. ) ;
#103 = LINE ( 'NONE', #606, #720 ) ;
#104 = EDGE_CURVE ( 'NONE', #457, #558, #168, .T. ) ;
#105 = EDGE_LOOP ( 'NONE', ( #742 ) ) ;
#106 = VERTEX_POINT ( 'NONE', #34 ) ;
#107 = DIRECTION ( 'NONE',  ( 0.000000000000000000, 0.000000000000000000, -1.000000000000000000 ) ) ;
#108 = CARTESIAN_POINT ( 'NONE',  ( 0.000000000000000000, 24.00074402784842320, 24.75000000000000711 ) ) ;
#109 = VERTEX_POINT ( 'NONE', #456 ) ;
#110 = AXIS2_PLACEMENT_3D ( 'NONE', #583, #73, #24 ) ;
#111 = CARTESIAN_POINT ( 'NONE',  ( -5.058019801410940985, 0.000000000000000000, 20.00000000000000000 ) ) ;
#112 = CIRCLE ( 'NONE', #38, 3.000000000000002665 ) ;
#113 = DIRECTION ( 'NONE',  ( -0.000000000000000000, -0.8660254037844384856, -0.5000000000000003331 ) ) ;
#114 = EDGE_LOOP ( 'NONE', ( #321 ) ) ;
#115 = VERTEX_POINT ( 'NONE', #193 ) ;
#116 = CARTESIAN_POINT ( 'NONE',  ( 0.000000000000000000, 22.65137527728226630, 23.97094158862456936 ) ) ;
#117 = CARTESIAN_POINT ( 'NONE',  ( 7.980255760164877366, 8.843657836216097579, 12.00284337860784944 ) ) ;
#118 = ADVANCED_FACE ( 'NONE', ( #375, #661 ), #96, .F. ) ;
#119 = EDGE_LOOP ( 'NONE', ( #917 ) ) ;
#120 =( NAMED_UNIT ( * ) PLANE_ANGLE_UNIT ( ) SI_UNIT ( $, .RADIAN. ) );
#121 = CARTESIAN_POINT ( 'NONE',  ( 0.000000000000000000, 40.88823940164497373, 34.50000000000001421 ) ) ;
#122 = CARTESIAN_POINT ( 'NONE',  ( -15.00000000000000000, 10.00000000000000000, 0.000000000000000000 ) ) ;
#123 = ORIENTED_EDGE ( 'NONE', *, *, #592, .F. ) ;
#124 = AXIS2_PLACEMENT_3D ( 'NONE', #858, #637, #52 ) ;
#125 = CARTESIAN_POINT ( 'NONE',  ( 0.000000000000000000, 7.113248654051864683, 14.99999999999999645 ) ) ;
#126 = CIRCLE ( 'NONE', #747, 11.50000000000000533 ) ;
#127 = CARTESIAN_POINT ( 'NONE',  ( -8.351379979123723984, 9.438372834008552203, 10.97276678640810843 ) ) ;
#128 = ORIENTED_EDGE ( 'NONE', *, *, #101, .T. ) ;
#129 = CARTESIAN_POINT ( 'NONE',  ( -15.00000000000000000, 0.000000000000000000, 0.000000000000000000 ) ) ;
#130 = CARTESIAN_POINT ( 'NONE',  ( 4.951929810480172556, 10.00000000000000000, 1.000000000000002665 ) ) ;
#131 = ORIENTED_EDGE ( 'NONE', *, *, #635, .T. ) ;
#132 = ADVANCED_FACE ( 'NONE', ( #595, #227 ), #298, .F. ) ;
#133 = CARTESIAN_POINT ( 'NONE',  ( 7.054656334662484873, 0.000000000000000000, 18.11594202898551131 ) ) ;
#134 = DIRECTION ( 'NONE',  ( 0.000000000000000000, 0.000000000000000000, -1.000000000000000000 ) ) ;
#135 = ORIENTED_EDGE ( 'NONE', *, *, #705, .F. ) ;
#136 = ORIENTED_EDGE ( 'NONE', *, *, #911, .F. ) ;
#137 = FACE_OUTER_BOUND ( 'NONE', #798, .T. ) ;
#138 = CARTESIAN_POINT ( 'NONE',  ( 5.058019801410941874, 4.226497308103741801, 20.00000000000000000 ) ) ;
#139 = AXIS2_PLACEMENT_3D ( 'NONE', #211, #68, #937 ) ;
#140 = EDGE_CURVE ( 'NONE', #497, #920, #870, .T. ) ;
#141 = CIRCLE ( 'NONE', #840, 3.999999999999998224 ) ;
#142 = AXIS2_PLACEMENT_3D ( 'NONE', #570, #788, #267 ) ;
#143 = VERTEX_POINT ( 'NONE', #236 ) ;
#144 = PRODUCT_RELATED_PRODUCT_CATEGORY ( 'part', '', ( #74 ) ) ;
#145 =( NAMED_UNIT ( * ) PLANE_ANGLE_UNIT ( ) SI_UNIT ( $, .RADIAN. ) );
#146 = ORIENTED_EDGE ( 'NONE', *, *, #259, .T. ) ;
#147 = CARTESIAN_POINT ( 'NONE',  ( -6.989822400005685665, 4.669644484178138377, 19.23244657580847061 ) ) ;
#148 = FACE_OUTER_BOUND ( 'NONE', #648, .T. ) ;
#149 = ORIENTED_EDGE ( 'NONE', *, *, #217, .F. ) ;
#150 = CARTESIAN_POINT ( 'NONE',  ( 15.00000000000000000, 9.499999999999996447, 2.500000000000000444 ) ) ;
#151 = DIRECTION ( 'NONE',  ( 0.000000000000000000, 1.000000000000000000, 0.000000000000000000 ) ) ;
#152 = DIRECTION ( 'NONE',  ( -0.000000000000000000, -1.000000000000000000, -0.000000000000000000 ) ) ;
#153 = EDGE_LOOP ( 'NONE', ( #785 ) ) ;
#154 = ADVANCED_FACE ( 'NONE', ( #164, #90 ), #384, .F. ) ;
#155 = CYLINDRICAL_SURFACE ( 'NONE', #762, 8.500000000000008882 ) ;
#156 = ADVANCED_FACE ( 'NONE', ( #188, #914, #397 ), #697, .F. ) ;
#157 = FACE_BOUND ( 'NONE', #220, .T. ) ;
#158 = DIRECTION ( 'NONE',  ( 0.000000000000000000, 0.5000000000000000000, -0.8660254037844387076 ) ) ;
#159 = CIRCLE ( 'NONE', #80, 12.50000000000000355 ) ;
#160 = ORIENTED_EDGE ( 'NONE', *, *, #855, .T. ) ;
#161 = CIRCLE ( 'NONE', #240, 5.200000000000000178 ) ;
#162 = DIRECTION ( 'NONE',  ( -1.000000000000000000, 0.000000000000000000, 0.000000000000000000 ) ) ;
#163 = CARTESIAN_POINT ( 'NONE',  ( -8.853889432723235586, 9.999999999999998224, 10.00000000000000000 ) ) ;
#164 = FACE_OUTER_BOUND ( 'NONE', #70, .T. ) ;
#165 = VERTEX_POINT ( 'NONE', #480 ) ;
#166 = CARTESIAN_POINT ( 'NONE',  ( 4.951929810480172556, 10.00000000000000000, 6.000000000000002665 ) ) ;
#167 = DIRECTION ( 'NONE',  ( 0.000000000000000000, 0.000000000000000000, 1.000000000000000000 ) ) ;
#168 = LINE ( 'NONE', #890, #672 ) ;
#169 = EDGE_LOOP ( 'NONE', ( #301 ) ) ;
#170 = CARTESIAN_POINT ( 'NONE',  ( -5.058019801410941874, 0.000000000000000000, 18.00000000000000355 ) ) ;
#171 = DIRECTION ( 'NONE',  ( 1.000000000000000000, -0.000000000000000000, -0.000000000000000000 ) ) ;
#172 = EDGE_CURVE ( 'NONE', #270, #518, #782, .T. ) ;
#173 = CIRCLE ( 'NONE', #448, 12.50000000000000355 ) ;
#174 = ORIENTED_EDGE ( 'NONE', *, *, #823, .T. ) ;
#175 = CIRCLE ( 'NONE', #655, 3.999999999999998224 ) ;
#176 = CARTESIAN_POINT ( 'NONE',  ( 15.00000000000000000, 10.00000000000000000, 0.000000000000000000 ) ) ;
#177 = ADVANCED_FACE ( 'NONE', ( #392 ), #682, .F. ) ;
#178 = CARTESIAN_POINT ( 'NONE',  ( 7.746877602391748496, 8.226048032977278268, 13.07257493707010099 ) ) ;
#179 = EDGE_LOOP ( 'NONE', ( #514 ) ) ;
#180 = CARTESIAN_POINT ( 'NONE',  ( -15.00000000000000000, 10.00000000000000000, 3.000000000000002665 ) ) ;
#181 = LINE ( 'NONE', #260, #403 ) ;
#182 = CARTESIAN_POINT ( 'NONE',  ( -7.746877602391739615, 0.000000000000000000, 13.07257493707010276 ) ) ;
#183 = ORIENTED_EDGE ( 'NONE', *, *, #427, .T. ) ;
#184 = ADVANCED_FACE ( 'NONE', ( #836, #340 ), #28, .F. ) ;
#185 = VERTEX_POINT ( 'NONE', #407 ) ;
#186 = FACE_OUTER_BOUND ( 'NONE', #834, .T. ) ;
#187 = ADVANCED_FACE ( 'NONE', ( #753 ), #839, .F. ) ;
#188 = FACE_BOUND ( 'NONE', #284, .T. ) ;
#189 = EDGE_LOOP ( 'NONE', ( #683, #703, #48, #123 ) ) ;
#190 = CIRCLE ( 'NONE', #779, 32.50000000000000711 ) ;
#191 = CARTESIAN_POINT ( 'NONE',  ( 8.853889432723249797, 9.999999999999998224, 10.00000000000000000 ) ) ;
#192 = ORIENTED_EDGE ( 'NONE', *, *, #787, .F. ) ;
#193 = CARTESIAN_POINT ( 'NONE',  ( 0.000000000000000000, 44.70522669975274965, 26.88878406783227248 ) ) ;
#194 = DIRECTION ( 'NONE',  ( 0.000000000000000000, 0.000000000000000000, 1.000000000000000000 ) ) ;
#195 = CARTESIAN_POINT ( 'NONE',  ( -7.980255760164875589, 8.843657836216097579, 12.00284337860784767 ) ) ;
#196 = VERTEX_POINT ( 'NONE', #182 ) ;
#197 = CARTESIAN_POINT ( 'NONE',  ( -15.00000000000000000, 0.4999999999999935052, 2.500000000000000444 ) ) ;
#198 = DIRECTION ( 'NONE',  ( 0.000000000000000000, 1.000000000000000000, 0.000000000000000000 ) ) ;
#199 = EDGE_LOOP ( 'NONE', ( #309 ) ) ;
#200 = EDGE_LOOP ( 'NONE', ( #62, #931, #938, #780 ) ) ;
#201 = AXIS2_PLACEMENT_3D ( 'NONE', #506, #819, #516 ) ;
#202 = CARTESIAN_POINT ( 'NONE',  ( 0.000000000000000000, 7.113248654051863795, 14.99999999999999645 ) ) ;
#203 = AXIS2_PLACEMENT_3D ( 'NONE', #429, #280, #207 ) ;
#204 = ADVANCED_FACE ( 'NONE', ( #620 ), #47, .F. ) ;
#205 = LINE ( 'NONE', #492, #867 ) ;
#206 = ORIENTED_EDGE ( 'NONE', *, *, #575, .F. ) ;
#207 = DIRECTION ( 'NONE',  ( 0.000000000000000000, 0.5000000000000049960, -0.8660254037844358210 ) ) ;
#208 = PLANE ( 'NONE',  #717 ) ;
#209 = ORIENTED_EDGE ( 'NONE', *, *, #657, .F. ) ;
#210 = FACE_OUTER_BOUND ( 'NONE', #200, .T. ) ;
#211 = CARTESIAN_POINT ( 'NONE',  ( 0.000000000000000000, 29.45670407169036764, 27.90000000000000213 ) ) ;
#212 = EDGE_LOOP ( 'NONE', ( #591 ) ) ;
#213 = PRESENTATION_STYLE_ASSIGNMENT (( #338 ) ) ;
#214 = ORIENTED_EDGE ( 'NONE', *, *, #705, .T. ) ;
#215 = VERTEX_POINT ( 'NONE', #801 ) ;
#216 = CIRCLE ( 'NONE', #899, 2.500000000000000444 ) ;
#217 = EDGE_CURVE ( 'NONE', #305, #196, #761, .T. ) ;
#218 = DIRECTION ( 'NONE',  ( 0.000000000000000000, 0.5000000000000003331, -0.8660254037844384856 ) ) ;
#219 =( GEOMETRIC_REPRESENTATION_CONTEXT ( 3 ) GLOBAL_UNCERTAINTY_ASSIGNED_CONTEXT ( ( #869 ) ) GLOBAL_UNIT_ASSIGNED_CONTEXT ( ( #765, #42, #391 ) ) REPRESENTATION_CONTEXT ( 'NONE', 'WORKASPACE' ) );
#220 = EDGE_LOOP ( 'NONE', ( #323 ) ) ;
#221 = CARTESIAN_POINT ( 'NONE',  ( 0.000000000000000000, 46.20522669975287045, 24.29070785647902753 ) ) ;
#222 = AXIS2_PLACEMENT_3D ( 'NONE', #108, #113, #336 ) ;
#223 = EDGE_LOOP ( 'NONE', ( #100, #341, #691, #381 ) ) ;
#224 = CARTESIAN_POINT ( 'NONE',  ( 0.000000000000000000, 33.70670407169038185, 20.53878406783226396 ) ) ;
#225 = CARTESIAN_POINT ( 'NONE',  ( -15.00000000000000000, 9.499999999999996447, 0.000000000000000000 ) ) ;
#226 = EDGE_CURVE ( 'NONE', #613, #143, #103, .T. ) ;
#227 = FACE_BOUND ( 'NONE', #169, .T. ) ;
#228 = ORIENTED_EDGE ( 'NONE', *, *, #55, .T. ) ;
#229 = ADVANCED_FACE ( 'NONE', ( #833 ), #624, .F. ) ;
#230 = CARTESIAN_POINT ( 'NONE',  ( -19.95961698608723367, 0.000000000000000000, 15.73696919204314248 ) ) ;
#231 = DIRECTION ( 'NONE',  ( 0.000000000000000000, 0.000000000000000000, -1.000000000000000000 ) ) ;
#232 = DIRECTION ( 'NONE',  ( 0.000000000000000000, 0.000000000000000000, 1.000000000000000000 ) ) ;
#233 = EDGE_LOOP ( 'NONE', ( #754, #228, #128, #465 ) ) ;
#234 = DIRECTION ( 'NONE',  ( 0.000000000000000000, 0.8660254037844384856, 0.5000000000000003331 ) ) ;
#235 = DIRECTION ( 'NONE',  ( 0.000000000000000000, -0.4999999999999988343, 0.8660254037844392627 ) ) ;
#236 = CARTESIAN_POINT ( 'NONE',  ( 5.058019801410941874, 0.000000000000000000, 20.00000000000000000 ) ) ;
#237 = PRESENTATION_LAYER_ASSIGNMENT (  '', '', ( #357 ) ) ;
#238 = CIRCLE ( 'NONE', #477, 12.50000000000000355 ) ;
#239 = ORIENTED_EDGE ( 'NONE', *, *, #427, .F. ) ;
#240 = AXIS2_PLACEMENT_3D ( 'NONE', #312, #75, #158 ) ;
#241 = CARTESIAN_POINT ( 'NONE',  ( 0.000000000000000000, 7.113248654051863795, 14.99999999999999645 ) ) ;
#242 = FACE_OUTER_BOUND ( 'NONE', #41, .T. ) ;
#243 = DIRECTION ( 'NONE',  ( 0.000000000000000000, -0.8660254037844384856, -0.5000000000000004441 ) ) ;
#244 = ORIENTED_EDGE ( 'NONE', *, *, #608, .F. ) ;
#245 = ADVANCED_FACE ( 'NONE', ( #554 ), #462, .T. ) ;
#246 = LINE ( 'NONE', #811, #314 ) ;
#247 = EDGE_LOOP ( 'NONE', ( #596 ) ) ;
#248 = SURFACE_STYLE_FILL_AREA ( #693 ) ;
#249 = DIRECTION ( 'NONE',  ( 0.000000000000000000, 0.000000000000000000, -1.000000000000000000 ) ) ;
#250 = AXIS2_PLACEMENT_3D ( 'NONE', #879, #882, #231 ) ;
#251 = ORIENTED_EDGE ( 'NONE', *, *, #58, .F. ) ;
#252 = AXIS2_PLACEMENT_3D ( 'NONE', #170, #255, #331 ) ;
#253 =( GEOMETRIC_REPRESENTATION_CONTEXT ( 3 ) GLOBAL_UNCERTAINTY_ASSIGNED_CONTEXT ( ( #786 ) ) GLOBAL_UNIT_ASSIGNED_CONTEXT ( ( #415, #145, #653 ) ) REPRESENTATION_CONTEXT ( 'NONE', 'WORKASPACE' ) );
#254 = VERTEX_POINT ( 'NONE', #180 ) ;
#255 = DIRECTION ( 'NONE',  ( -0.000000000000000000, -1.000000000000000000, -0.000000000000000000 ) ) ;
#256 = DIRECTION ( 'NONE',  ( 0.000000000000000000, 0.000000000000000000, -1.000000000000000000 ) ) ;
#257 = EDGE_CURVE ( 'NONE', #439, #439, #390, .T. ) ;
#258 = ORIENTED_EDGE ( 'NONE', *, *, #757, .F. ) ;
#259 = EDGE_CURVE ( 'NONE', #366, #366, #97, .T. ) ;
#260 = CARTESIAN_POINT ( 'NONE',  ( 7.746877602391748496, 10.00000000000000000, 13.07257493707010099 ) ) ;
#261 = DIRECTION ( 'NONE',  ( -1.000000000000000000, 0.000000000000000000, -0.000000000000000000 ) ) ;
#262 = ORIENTED_EDGE ( 'NONE', *, *, #275, .F. ) ;
#263 = DIRECTION ( 'NONE',  ( -0.000000000000000000, -0.8660254037844384856, -0.5000000000000003331 ) ) ;
#264 = DIRECTION ( 'NONE',  ( 0.000000000000000000, 0.5000000000000000000, -0.8660254037844385966 ) ) ;
#265 = VERTEX_POINT ( 'NONE', #400 ) ;
#266 = AXIS2_PLACEMENT_3D ( 'NONE', #784, #933, #287 ) ;
#267 = DIRECTION ( 'NONE',  ( 0.000000000000000000, -0.5000000000000003331, 0.8660254037844383745 ) ) ;
#268 = AXIS2_PLACEMENT_3D ( 'NONE', #908, #751, #471 ) ;
#269 = DIRECTION ( 'NONE',  ( -0.000000000000000000, -1.000000000000000000, -0.000000000000000000 ) ) ;
#270 = VERTEX_POINT ( 'NONE', #191 ) ;
#271 = CARTESIAN_POINT ( 'NONE',  ( 0.2500000000000002220, 10.00000000000000000, -2.727178028658929776 ) ) ;
#272 = EDGE_CURVE ( 'NONE', #805, #805, #628, .T. ) ;
#273 = CYLINDRICAL_SURFACE ( 'NONE', #461, 3.999999999999998224 ) ;
#274 = ORIENTED_EDGE ( 'NONE', *, *, #791, .T. ) ;
#275 = EDGE_CURVE ( 'NONE', #32, #831, #40, .T. ) ;
#276 = CARTESIAN_POINT ( 'NONE',  ( 4.951929810480172556, 0.000000000000000000, 1.000000000000002665 ) ) ;
#277 = LINE ( 'NONE', #928, #871 ) ;
#278 = ORIENTED_EDGE ( 'NONE', *, *, #830, .F. ) ;
#279 = AXIS2_PLACEMENT_3D ( 'NONE', #659, #92, #167 ) ;
#280 = DIRECTION ( 'NONE',  ( -0.000000000000000000, -0.8660254037844359321, -0.5000000000000051070 ) ) ;
#281 = AXIS2_PLACEMENT_3D ( 'NONE', #129, #344, #63 ) ;
#282 = FACE_OUTER_BOUND ( 'NONE', #223, .T. ) ;
#283 = CIRCLE ( 'NONE', #548, 2.500000000000000444 ) ;
#284 = EDGE_LOOP ( 'NONE', ( #712 ) ) ;
#285 = ORIENTED_EDGE ( 'NONE', *, *, #566, .F. ) ;
#286 = CARTESIAN_POINT ( 'NONE',  ( 5.058019801410941874, 0.000000000000000000, 18.00000000000000355 ) ) ;
#287 = DIRECTION ( 'NONE',  ( 0.000000000000000000, 0.5000000000000049960, -0.8660254037844358210 ) ) ;
#288 = ORIENTED_EDGE ( 'NONE', *, *, #85, .F. ) ;
#289 = APPLICATION_CONTEXT ( 'automotive_design' ) ;
#290 = ORIENTED_EDGE ( 'NONE', *, *, #538, .F. ) ;
#291 = CARTESIAN_POINT ( 'NONE',  ( 7.000000000000000000, 4.226497308103741801, 20.00000000000000000 ) ) ;
#292 = DIRECTION ( 'NONE',  ( -1.000000000000000000, 0.000000000000000000, 0.000000000000000000 ) ) ;
#293 = CYLINDRICAL_SURFACE ( 'NONE', #718, 3.999999999999998224 ) ;
#294 =( NAMED_UNIT ( * ) SI_UNIT ( $, .STERADIAN. ) SOLID_ANGLE_UNIT ( ) );
#295 = VERTEX_POINT ( 'NONE', #630 ) ;
#296 = CARTESIAN_POINT ( 'NONE',  ( 0.000000000000000000, 23.65137527728226985, 22.23889078105569084 ) ) ;
#297 = CARTESIAN_POINT ( 'NONE',  ( 5.058019801410941874, 10.00000000000000000, 18.00000000000000355 ) ) ;
#298 = CONICAL_SURFACE ( 'NONE', #464, 2.500000000000000444, 0.7853981633974466137 ) ;
#299 = DIRECTION ( 'NONE',  ( -0.000000000000000000, -1.000000000000000000, -0.000000000000000000 ) ) ;
#300 = PRODUCT_CONTEXT ( 'NONE', #289, 'mechanical' ) ;
#301 = ORIENTED_EDGE ( 'NONE', *, *, #559, .F. ) ;
#302 = DIRECTION ( 'NONE',  ( -0.000000000000000000, 0.8660254037844395958, 0.4999999999999985567 ) ) ;
#303 = FACE_BOUND ( 'NONE', #66, .T. ) ;
#304 = CARTESIAN_POINT ( 'NONE',  ( 11.06666666666666643, 0.000000000000000000, -0.7272474743090472371 ) ) ;
#305 = VERTEX_POINT ( 'NONE', #919 ) ;
#306 = EDGE_CURVE ( 'NONE', #904, #665, #277, .T. ) ;
#307 = FACE_OUTER_BOUND ( 'NONE', #105, .T. ) ;
#308 = DIRECTION ( 'NONE',  ( 0.000000000000000000, 1.000000000000000000, 0.000000000000000000 ) ) ;
#309 = ORIENTED_EDGE ( 'NONE', *, *, #487, .F. ) ;
#310 = VERTEX_POINT ( 'NONE', #888 ) ;
#311 = CARTESIAN_POINT ( 'NONE',  ( 5.058019801410941874, 4.226497308103741801, 20.00000000000000000 ) ) ;
#312 = CARTESIAN_POINT ( 'NONE',  ( 0.000000000000000000, 7.113248654051870901, 15.00000000000000000 ) ) ;
#313 = CONICAL_SURFACE ( 'NONE', #139, 11.50000000000000178, 0.7853981633974501664 ) ;
#314 = VECTOR ( 'NONE', #824, 1000.000000000000000 ) ;
#315 = AXIS2_PLACEMENT_3D ( 'NONE', #116, #27, #835 ) ;
#316 = ORIENTED_EDGE ( 'NONE', *, *, #685, .T. ) ;
#317 = AXIS2_PLACEMENT_3D ( 'NONE', #921, #774, #843 ) ;
#318 = PRODUCT_DEFINITION ( 'UNKNOWN', '', #658, #411 ) ;
#319 = DIRECTION ( 'NONE',  ( 0.000000000000000000, 0.000000000000000000, -1.000000000000000000 ) ) ;
#320 = DIRECTION ( 'NONE',  ( 0.000000000000000000, 1.000000000000000000, 0.000000000000000000 ) ) ;
#321 = ORIENTED_EDGE ( 'NONE', *, *, #677, .F. ) ;
#322 = DIRECTION ( 'NONE',  ( -0.000000000000000000, -1.000000000000000000, -0.000000000000000000 ) ) ;
#323 = ORIENTED_EDGE ( 'NONE', *, *, #677, .T. ) ;
#324 = CARTESIAN_POINT ( 'NONE',  ( -15.00000000000000000, 0.000000000000000000, 0.000000000000000000 ) ) ;
#325 = EDGE_CURVE ( 'NONE', #143, #410, #430, .T. ) ;
#326 = CARTESIAN_POINT ( 'NONE',  ( -7.746877602391739615, 10.00000000000000000, 13.07257493707010276 ) ) ;
#327 = ADVANCED_FACE ( 'NONE', ( #282 ), #496, .F. ) ;
#328 = CIRCLE ( 'NONE', #124, 3.999999999999998224 ) ;
#329 = VERTEX_POINT ( 'NONE', #711 ) ;
#330 = CIRCLE ( 'NONE', #929, 9.000000000000044409 ) ;
#331 = DIRECTION ( 'NONE',  ( 0.000000000000000000, 0.000000000000000000, 1.000000000000000000 ) ) ;
#332 = CARTESIAN_POINT ( 'NONE',  ( 8.870204652546982871, 10.00000000000000000, 4.105981690549113772 ) ) ;
#333 = EDGE_LOOP ( 'NONE', ( #817 ) ) ;
#334 = CARTESIAN_POINT ( 'NONE',  ( 0.000000000000000000, 8.113248654051867348, 13.26794919243111792 ) ) ;
#335 = DIRECTION ( 'NONE',  ( 0.000000000000000000, -1.000000000000000000, 0.000000000000000000 ) ) ;
#336 = DIRECTION ( 'NONE',  ( 0.000000000000000000, 0.5000000000000003331, -0.8660254037844384856 ) ) ;
#337 = EDGE_LOOP ( 'NONE', ( #501 ) ) ;
#338 = SURFACE_STYLE_USAGE ( .BOTH. , #369 ) ;
#339 = DIRECTION ( 'NONE',  ( 0.000000000000000000, 0.5000000000000003331, -0.8660254037844385966 ) ) ;
#340 = FACE_OUTER_BOUND ( 'NONE', #413, .T. ) ;
#341 = ORIENTED_EDGE ( 'NONE', *, *, #13, .T. ) ;
#342 = AXIS2_PLACEMENT_3D ( 'NONE', #122, #346, #853 ) ;
#343 = EDGE_CURVE ( 'NONE', #457, #560, #159, .T. ) ;
#344 = DIRECTION ( 'NONE',  ( -0.000000000000000000, -1.000000000000000000, -0.000000000000000000 ) ) ;
#345 = VECTOR ( 'NONE', #694, 1000.000000000000000 ) ;
#346 = DIRECTION ( 'NONE',  ( -0.000000000000000000, -1.000000000000000000, -0.000000000000000000 ) ) ;
#347 = ORIENTED_EDGE ( 'NONE', *, *, #791, .F. ) ;
#348 = VERTEX_POINT ( 'NONE', #221 ) ;
#349 = CARTESIAN_POINT ( 'NONE',  ( 11.06666666666666643, 10.00000000000000000, -0.7272474743090472371 ) ) ;
#350 = FACE_OUTER_BOUND ( 'NONE', #863, .T. ) ;
#351 = ORIENTED_EDGE ( 'NONE', *, *, #104, .F. ) ;
#352 = FACE_OUTER_BOUND ( 'NONE', #547, .T. ) ;
#353 = DIRECTION ( 'NONE',  ( 0.000000000000000000, 0.000000000000000000, -1.000000000000000000 ) ) ;
#354 = ADVANCED_FACE ( 'NONE', ( #700 ), #208, .F. ) ;
#355 = ORIENTED_EDGE ( 'NONE', *, *, #16, .T. ) ;
#356 = ADVANCED_FACE ( 'NONE', ( #790, #567 ), #313, .T. ) ;
#357 = STYLED_ITEM ( 'NONE', ( #532 ), #569 ) ;
#358 = CYLINDRICAL_SURFACE ( 'NONE', #702, 11.00000000000000000 ) ;
#359 = CYLINDRICAL_SURFACE ( 'NONE', #342, 2.500000000000000444 ) ;
#360 = VECTOR ( 'NONE', #387, 1000.000000000000000 ) ;
#361 =( GEOMETRIC_REPRESENTATION_CONTEXT ( 3 ) GLOBAL_UNCERTAINTY_ASSIGNED_CONTEXT ( ( #773 ) ) GLOBAL_UNIT_ASSIGNED_CONTEXT ( ( #510, #120, #294 ) ) REPRESENTATION_CONTEXT ( 'NONE', 'WORKASPACE' ) );
#362 = ORIENTED_EDGE ( 'NONE', *, *, #372, .F. ) ;
#363 = CARTESIAN_POINT ( 'NONE',  ( 15.00000000000000000, 10.00000000000000000, 3.000000000000002665 ) ) ;
#364 = DIRECTION ( 'NONE',  ( -0.000000000000000000, -1.000000000000000000, -0.000000000000000000 ) ) ;
#365 = ORIENTED_EDGE ( 'NONE', *, *, #832, .T. ) ;
#366 = VERTEX_POINT ( 'NONE', #650 ) ;
#367 = CARTESIAN_POINT ( 'NONE',  ( -7.153228237049819249, 6.294314089484719155, 16.41843627390460369 ) ) ;
#368 = DIRECTION ( 'NONE',  ( 0.000000000000000000, 0.000000000000000000, 1.000000000000000000 ) ) ;
#369 = SURFACE_SIDE_STYLE ('',( #622 ) ) ;
#370 = EDGE_LOOP ( 'NONE', ( #563 ) ) ;
#371 = CARTESIAN_POINT ( 'NONE',  ( -7.054656334662484873, 5.314258684837817270, 18.11594202898551131 ) ) ;
#372 = EDGE_CURVE ( 'NONE', #393, #759, #205, .T. ) ;
#373 = DIRECTION ( 'NONE',  ( 0.000000000000000000, 0.000000000000000000, 1.000000000000000000 ) ) ;
#374 = CIRCLE ( 'NONE', #450, 3.000000000000002665 ) ;
#375 = FACE_OUTER_BOUND ( 'NONE', #402, .T. ) ;
#376 = EDGE_LOOP ( 'NONE', ( #258 ) ) ;
#377 = EDGE_CURVE ( 'NONE', #295, #803, #328, .T. ) ;
#378 = DIRECTION ( 'NONE',  ( 0.000000000000000000, 0.000000000000000000, 1.000000000000000000 ) ) ;
#379 = CARTESIAN_POINT ( 'NONE',  ( -0.2500000000000002220, 10.00000000000000000, -2.727178028658929776 ) ) ;
#380 = CARTESIAN_POINT ( 'NONE',  ( -0.2500000000000002220, 10.00000000000000000, -2.727178028658929776 ) ) ;
#381 = ORIENTED_EDGE ( 'NONE', *, *, #217, .T. ) ;
#382 = CARTESIAN_POINT ( 'NONE',  ( 0.000000000000000000, 40.45522669975275676, 34.25000000000001421 ) ) ;
#383 = DIRECTION ( 'NONE',  ( -0.000000000000000000, -0.8660254037844384856, -0.5000000000000003331 ) ) ;
#384 = PLANE ( 'NONE',  #704 ) ;
#385 = EDGE_LOOP ( 'NONE', ( #82, #634, #131, #422, #209 ) ) ;
#386 = CARTESIAN_POINT ( 'NONE',  ( -8.870204652546982871, 10.00000000000000000, 4.105981690549113772 ) ) ;
#387 = DIRECTION ( 'NONE',  ( 0.000000000000000000, 1.000000000000000000, 0.000000000000000000 ) ) ;
#388 = ORIENTED_EDGE ( 'NONE', *, *, #878, .T. ) ;
#389 = ADVANCED_FACE ( 'NONE', ( #923 ), #273, .T. ) ;
#390 = CIRCLE ( 'NONE', #507, 2.999999999999988898 ) ;
#391 =( NAMED_UNIT ( * ) SI_UNIT ( $, .STERADIAN. ) SOLID_ANGLE_UNIT ( ) );
#392 = FACE_OUTER_BOUND ( 'NONE', #781, .T. ) ;
#393 = VERTEX_POINT ( 'NONE', #777 ) ;
#394 = ADVANCED_FACE ( 'NONE', ( #715, #64 ), #359, .F. ) ;
#395 = LINE ( 'NONE', #678, #533 ) ;
#396 = ADVANCED_FACE ( 'NONE', ( #794, #644 ), #401, .T. ) ;
#397 = FACE_OUTER_BOUND ( 'NONE', #716, .T. ) ;
#398 = EDGE_LOOP ( 'NONE', ( #854 ) ) ;
#399 = CARTESIAN_POINT ( 'NONE',  ( -4.951929810480172556, 10.00000000000000000, 6.000000000000002665 ) ) ;
#400 = CARTESIAN_POINT ( 'NONE',  ( -5.058019801410940985, 4.226497308103741801, 20.00000000000000000 ) ) ;
#401 = CONICAL_SURFACE ( 'NONE', #266, 11.50000000000000533, 0.7853981633974533860 ) ;
#402 = EDGE_LOOP ( 'NONE', ( #543 ) ) ;
#403 = VECTOR ( 'NONE', #684, 1000.000000000000000 ) ;
#404 = ADVANCED_FACE ( 'NONE', ( #350 ), #849, .F. ) ;
#405 = AXIS2_PLACEMENT_3D ( 'NONE', #602, #152, #19 ) ;
#406 = COLOUR_RGB ( '',0.7921568627450980005, 0.8196078431372548767, 0.9333333333333333481 ) ;
#407 = CARTESIAN_POINT ( 'NONE',  ( 15.00000000000000000, 0.000000000000000000, 2.999999999999988898 ) ) ;
#408 = FACE_OUTER_BOUND ( 'NONE', #432, .T. ) ;
#409 = DIRECTION ( 'NONE',  ( -0.000000000000000000, -0.8660254037844384856, -0.5000000000000003331 ) ) ;
#410 = VERTEX_POINT ( 'NONE', #138 ) ;
#411 = PRODUCT_DEFINITION_CONTEXT ( 'detailed design', #423, 'design' ) ;
#412 = CARTESIAN_POINT ( 'NONE',  ( -4.951929810480172556, 10.00000000000000000, 1.000000000000002665 ) ) ;
#413 = EDGE_LOOP ( 'NONE', ( #483, #680, #907, #476, #15, #536, #160, #438 ) ) ;
#414 = EDGE_CURVE ( 'NONE', #305, #560, #789, .T. ) ;
#415 =( LENGTH_UNIT ( ) NAMED_UNIT ( * ) SI_UNIT ( .MILLI., .METRE. ) );
#416 = DIRECTION ( 'NONE',  ( -0.000000000000000000, -0.8660254037844384856, -0.5000000000000003331 ) ) ;
#417 = CARTESIAN_POINT ( 'NONE',  ( -39.50000000000000000, 10.00000000000000000, 20.00000000000000355 ) ) ;
#418 = EDGE_LOOP ( 'NONE', ( #529, #825, #577, #502 ) ) ;
#419 = VECTOR ( 'NONE', #901, 1000.000000000000000 ) ;
#420 = DIRECTION ( 'NONE',  ( 0.000000000000000000, 0.000000000000000000, 1.000000000000000000 ) ) ;
#421 = DIRECTION ( 'NONE',  ( 0.000000000000000000, 0.000000000000000000, 1.000000000000000000 ) ) ;
#422 = ORIENTED_EDGE ( 'NONE', *, *, #926, .T. ) ;
#423 = APPLICATION_CONTEXT ( 'automotive_design' ) ;
#424 = EDGE_CURVE ( 'NONE', #603, #305, #884, .T. ) ;
#425 = CARTESIAN_POINT ( 'NONE',  ( -11.06666666666666998, 10.00000000000000000, -0.7272474743090479032 ) ) ;
#426 = DIRECTION ( 'NONE',  ( 0.000000000000000000, -0.000000000000000000, 1.000000000000000000 ) ) ;
#427 = EDGE_CURVE ( 'NONE', #329, #95, #654, .T. ) ;
#428 = ORIENTED_EDGE ( 'NONE', *, *, #823, .F. ) ;
#429 = CARTESIAN_POINT ( 'NONE',  ( 0.000000000000000000, 40.45522669975280650, 34.25000000000004263 ) ) ;
#430 = LINE ( 'NONE', #562, #53 ) ;
#431 = CARTESIAN_POINT ( 'NONE',  ( -15.00000000000000000, 10.00000000000000000, 0.000000000000000000 ) ) ;
#432 = EDGE_LOOP ( 'NONE', ( #149, #808, #695, #621, #388 ) ) ;
#433 = AXIS2_PLACEMENT_3D ( 'NONE', #379, #78, #594 ) ;
#434 = DIRECTION ( 'NONE',  ( -0.000000000000000000, -1.000000000000000000, -0.000000000000000000 ) ) ;
#435 = CIRCLE ( 'NONE', #22, 2.500000000000000444 ) ;
#436 = CARTESIAN_POINT ( 'NONE',  ( -7.746877602391739615, 8.226048032977276492, 13.07257493707010276 ) ) ;
#437 = CIRCLE ( 'NONE', #582, 12.50000000000000355 ) ;
#438 = ORIENTED_EDGE ( 'NONE', *, *, #414, .F. ) ;
#439 = VERTEX_POINT ( 'NONE', #725 ) ;
#440 = CARTESIAN_POINT ( 'NONE',  ( 7.746877602391748496, 8.226048032977278268, 13.07257493707010099 ) ) ;
#441 = DIRECTION ( 'NONE',  ( -1.000000000000000000, 0.000000000000000000, 0.000000000000000000 ) ) ;
#442 = ADVANCED_FACE ( 'NONE', ( #889, #157, #809 ), #444, .T. ) ;
#443 = VERTEX_POINT ( 'NONE', #728 ) ;
#444 = PLANE ( 'NONE',  #433 ) ;
#445 = ADVANCED_FACE ( 'NONE', ( #148, #242 ), #8, .T. ) ;
#446 = CARTESIAN_POINT ( 'NONE',  ( 0.000000000000000000, 22.65137527728226630, 23.97094158862456936 ) ) ;
#447 = ORIENTED_EDGE ( 'NONE', *, *, #911, .T. ) ;
#448 = AXIS2_PLACEMENT_3D ( 'NONE', #806, #449, #802 ) ;
#449 = DIRECTION ( 'NONE',  ( -0.000000000000000000, -1.000000000000000000, 0.000000000000000000 ) ) ;
#450 = AXIS2_PLACEMENT_3D ( 'NONE', #37, #932, #194 ) ;
#451 = LINE ( 'NONE', #816, #689 ) ;
#452 = PRODUCT_DEFINITION_SHAPE ( 'NONE', 'NONE',  #318 ) ;
#453 = ORIENTED_EDGE ( 'NONE', *, *, #534, .F. ) ;
#454 = FACE_OUTER_BOUND ( 'NONE', #821, .T. ) ;
#455 = LINE ( 'NONE', #740, #670 ) ;
#456 = CARTESIAN_POINT ( 'NONE',  ( -7.054656334662484873, 0.000000000000000000, 18.11594202898551131 ) ) ;
#457 = VERTEX_POINT ( 'NONE', #12 ) ;
#458 = DIRECTION ( 'NONE',  ( 0.000000000000000000, 1.000000000000000000, 0.000000000000000000 ) ) ;
#459 = CARTESIAN_POINT ( 'NONE',  ( 8.870204652546982871, 0.000000000000000000, 4.105981690549113772 ) ) ;
#460 = ORIENTED_EDGE ( 'NONE', *, *, #534, .T. ) ;
#461 = AXIS2_PLACEMENT_3D ( 'NONE', #862, #846, #134 ) ;
#462 = CYLINDRICAL_SURFACE ( 'NONE', #268, 2.000000000000001776 ) ;
#463 = CIRCLE ( 'NONE', #252, 2.000000000000001776 ) ;
#464 = AXIS2_PLACEMENT_3D ( 'NONE', #736, #320, #86 ) ;
#465 = ORIENTED_EDGE ( 'NONE', *, *, #745, .F. ) ;
#466 = AXIS2_PLACEMENT_3D ( 'NONE', #903, #269, #256 ) ;
#467 = LINE ( 'NONE', #609, #419 ) ;
#468 = CARTESIAN_POINT ( 'NONE',  ( 71.38765549944001521, 9.999999999999998224, 10.00000000000000000 ) ) ;
#469 = ORIENTED_EDGE ( 'NONE', *, *, #657, .T. ) ;
#470 = DIRECTION ( 'NONE',  ( -0.000000000000000000, -1.000000000000000000, -0.000000000000000000 ) ) ;
#471 = DIRECTION ( 'NONE',  ( 0.000000000000000000, 0.000000000000000000, -1.000000000000000000 ) ) ;
#472 = EDGE_CURVE ( 'NONE', #759, #87, #488, .T. ) ;
#473 = ORIENTED_EDGE ( 'NONE', *, *, #575, .T. ) ;
#474 = DIRECTION ( 'NONE',  ( 0.000000000000000000, 0.000000000000000000, -1.000000000000000000 ) ) ;
#475 = CARTESIAN_POINT ( 'NONE',  ( 8.853889432723249797, 9.999999999999998224, 10.00000000000000000 ) ) ;
#476 = ORIENTED_EDGE ( 'NONE', *, *, #538, .T. ) ;
#477 = AXIS2_PLACEMENT_3D ( 'NONE', #230, #818, #733 ) ;
#478 = CIRCLE ( 'NONE', #642, 8.500000000000008882 ) ;
#479 = FACE_OUTER_BOUND ( 'NONE', #199, .T. ) ;
#480 = CARTESIAN_POINT ( 'NONE',  ( -11.06666666666666998, 0.000000000000000000, -0.7272474743090479032 ) ) ;
#481 = ORIENTED_EDGE ( 'NONE', *, *, #856, .F. ) ;
#482 = CARTESIAN_POINT ( 'NONE',  ( -4.951929810480172556, 10.00000000000000000, 1.000000000000002665 ) ) ;
#483 = ORIENTED_EDGE ( 'NONE', *, *, #424, .F. ) ;
#484 = CARTESIAN_POINT ( 'NONE',  ( -0.2500000000000002220, 10.00000000000000000, -2.727178028658929776 ) ) ;
#485 = CARTESIAN_POINT ( 'NONE',  ( -4.951929810480172556, 0.000000000000000000, 1.000000000000002665 ) ) ;
#486 = ORIENTED_EDGE ( 'NONE', *, *, #589, .T. ) ;
#487 = EDGE_CURVE ( 'NONE', #872, #872, #21, .T. ) ;
#488 = CIRCLE ( 'NONE', #279, 32.50000000000000711 ) ;
#489 = AXIS2_PLACEMENT_3D ( 'NONE', #271, #46, #552 ) ;
#490 = ADVANCED_FACE ( 'NONE', ( #588 ), #667, .T. ) ;
#491 = CARTESIAN_POINT ( 'NONE',  ( 39.50000000000000000, 10.00000000000000000, 20.00000000000000355 ) ) ;
#492 = CARTESIAN_POINT ( 'NONE',  ( 7.054656334662477768, 10.00000000000000000, 18.11594202898551131 ) ) ;
#493 = ORIENTED_EDGE ( 'NONE', *, *, #16, .F. ) ;
#494 =( BOUNDED_CURVE ( )  B_SPLINE_CURVE ( 3, ( #371, #147, #88, #580 ),
 .UNSPECIFIED., .F., .F. ) 
 B_SPLINE_CURVE_WITH_KNOTS ( ( 4, 4 ),
 ( 4.770392514017174790, 6.283185307179586232 ),
 .UNSPECIFIED. ) 
 CURVE ( )  GEOMETRIC_REPRESENTATION_ITEM ( )  RATIONAL_B_SPLINE_CURVE ( ( 1.000000000000000000, 0.8182092658019171072, 0.8182092658019171072, 1.000000000000000000 ) ) 
 REPRESENTATION_ITEM ( '' )  );
#495 = DIRECTION ( 'NONE',  ( 0.000000000000000000, 0.000000000000000000, 1.000000000000000000 ) ) ;
#496 = CYLINDRICAL_SURFACE ( 'NONE', #886, 32.50000000000000711 ) ;
#497 = VERTEX_POINT ( 'NONE', #386 ) ;
#498 = ORIENTED_EDGE ( 'NONE', *, *, #592, .T. ) ;
#499 = DIRECTION ( 'NONE',  ( -0.000000000000000000, -1.000000000000000000, -0.000000000000000000 ) ) ;
#500 = DIRECTION ( 'NONE',  ( 0.000000000000000000, 0.000000000000000000, -1.000000000000000000 ) ) ;
#501 = ORIENTED_EDGE ( 'NONE', *, *, #272, .T. ) ;
#502 = ORIENTED_EDGE ( 'NONE', *, *, #85, .T. ) ;
#503 = LINE ( 'NONE', #587, #505 ) ;
#504 = CIRCLE ( 'NONE', #405, 5.000000000000000000 ) ;
#505 = VECTOR ( 'NONE', #656, 1000.000000000000000 ) ;
#506 = CARTESIAN_POINT ( 'NONE',  ( 0.000000000000000000, 29.45670407169037119, 27.90000000000000213 ) ) ;
#507 = AXIS2_PLACEMENT_3D ( 'NONE', #896, #758, #686 ) ;
#508 = EDGE_CURVE ( 'NONE', #270, #295, #173, .T. ) ;
#509 = ORIENTED_EDGE ( 'NONE', *, *, #830, .T. ) ;
#510 =( LENGTH_UNIT ( ) NAMED_UNIT ( * ) SI_UNIT ( .MILLI., .METRE. ) );
#511 = VERTEX_POINT ( 'NONE', #150 ) ;
#512 = CARTESIAN_POINT ( 'NONE',  ( 6.989822400005686553, 4.669644484178138377, 19.23244657580847417 ) ) ;
#513 = CARTESIAN_POINT ( 'NONE',  ( 15.00000000000000000, 0.000000000000000000, 0.000000000000000000 ) ) ;
#514 = ORIENTED_EDGE ( 'NONE', *, *, #259, .F. ) ;
#515 = DIRECTION ( 'NONE',  ( 0.000000000000000000, 0.5000000000000003331, -0.8660254037844383745 ) ) ;
#516 = DIRECTION ( 'NONE',  ( 0.000000000000000000, 0.5000000000000002220, -0.8660254037844384856 ) ) ;
#517 = LINE ( 'NONE', #524, #360 ) ;
#518 = VERTEX_POINT ( 'NONE', #440 ) ;
#519 = ADVANCED_FACE ( 'NONE', ( #303, #671 ), #701, .F. ) ;
#520 = EDGE_CURVE ( 'NONE', #511, #511, #778, .T. ) ;
#521 = CARTESIAN_POINT ( 'NONE',  ( 7.054656334662484873, 5.314258684837817270, 18.11594202898551131 ) ) ;
#522 = VECTOR ( 'NONE', #526, 1000.000000000000000 ) ;
#523 = AXIS2_PLACEMENT_3D ( 'NONE', #9, #14, #880 ) ;
#524 = CARTESIAN_POINT ( 'NONE',  ( -7.054656334662477768, 10.00000000000000000, 18.11594202898551131 ) ) ;
#525 = EDGE_LOOP ( 'NONE', ( #355, #285, #881, #469 ) ) ;
#526 = DIRECTION ( 'NONE',  ( -0.000000000000000000, -1.000000000000000000, -0.000000000000000000 ) ) ;
#527 = CARTESIAN_POINT ( 'NONE',  ( 0.000000000000000000, 7.113248654051863795, 14.99999999999999645 ) ) ;
#528 = DIRECTION ( 'NONE',  ( 0.000000000000000000, 0.5000000000000003331, -0.8660254037844383745 ) ) ;
#529 = ORIENTED_EDGE ( 'NONE', *, *, #306, .F. ) ;
#530 = DIRECTION ( 'NONE',  ( -0.000000000000000000, -1.000000000000000000, -0.000000000000000000 ) ) ;
#531 = ORIENTED_EDGE ( 'NONE', *, *, #472, .F. ) ;
#532 = PRESENTATION_STYLE_ASSIGNMENT (( #838 ) ) ;
#533 = VECTOR ( 'NONE', #335, 1000.000000000000000 ) ;
#534 = EDGE_CURVE ( 'NONE', #920, #457, #94, .T. ) ;
#535 = PRESENTATION_LAYER_ASSIGNMENT (  '', '', ( #734 ) ) ;
#536 = ORIENTED_EDGE ( 'NONE', *, *, #172, .F. ) ;
#537 = CYLINDRICAL_SURFACE ( 'NONE', #719, 12.50000000000000355 ) ;
#538 = EDGE_CURVE ( 'NONE', #410, #393, #10, .T. ) ;
#539 = DIRECTION ( 'NONE',  ( 0.000000000000000000, 0.4999999999999998890, -0.8660254037844387076 ) ) ;
#540 = ORIENTED_EDGE ( 'NONE', *, *, #377, .T. ) ;
#541 = DIRECTION ( 'NONE',  ( -0.000000000000000000, -1.000000000000000000, -0.000000000000000000 ) ) ;
#542 = CARTESIAN_POINT ( 'NONE',  ( 0.2500000000000002220, 10.00000000000000000, -2.727178028658929776 ) ) ;
#543 = ORIENTED_EDGE ( 'NONE', *, *, #49, .F. ) ;
#544 = SURFACE_SIDE_STYLE ('',( #248 ) ) ;
#545 = CARTESIAN_POINT ( 'NONE',  ( 7.000000000000000000, 10.00000000000000000, 20.00000000000000000 ) ) ;
#546 = AXIS2_PLACEMENT_3D ( 'NONE', #873, #729, #235 ) ;
#547 = EDGE_LOOP ( 'NONE', ( #876 ) ) ;
#548 = AXIS2_PLACEMENT_3D ( 'NONE', #730, #744, #368 ) ;
#549 = AXIS2_PLACEMENT_3D ( 'NONE', #176, #541, #474 ) ;
#550 = VECTOR ( 'NONE', #43, 1000.000000000000000 ) ;
#551 = VERTEX_POINT ( 'NONE', #556 ) ;
#552 = DIRECTION ( 'NONE',  ( 0.000000000000000000, 0.000000000000000000, -1.000000000000000000 ) ) ;
#553 = ADVANCED_FACE ( 'NONE', ( #2, #307 ), #826, .F. ) ;
#554 = FACE_OUTER_BOUND ( 'NONE', #189, .T. ) ;
#555 = ORIENTED_EDGE ( 'NONE', *, *, #275, .T. ) ;
#556 = CARTESIAN_POINT ( 'NONE',  ( 0.000000000000000000, 46.38823940164503767, 24.97372055837109173 ) ) ;
#557 = DIRECTION ( 'NONE',  ( -0.000000000000000000, -1.000000000000000000, -0.000000000000000000 ) ) ;
#558 = VERTEX_POINT ( 'NONE', #815 ) ;
#559 = EDGE_CURVE ( 'NONE', #443, #443, #216, .T. ) ;
#560 = VERTEX_POINT ( 'NONE', #163 ) ;
#561 = DIRECTION ( 'NONE',  ( -0.000000000000000000, -1.000000000000000000, -0.000000000000000000 ) ) ;
#562 = CARTESIAN_POINT ( 'NONE',  ( 5.058019801410941874, 10.00000000000000000, 20.00000000000000000 ) ) ;
#563 = ORIENTED_EDGE ( 'NONE', *, *, #49, .T. ) ;
#564 = AXIS2_PLACEMENT_3D ( 'NONE', #748, #604, #30 ) ;
#565 = CARTESIAN_POINT ( 'NONE',  ( 16.20233139056659510, 0.000000000000000000, 3.815022834434700361 ) ) ;
#566 = EDGE_CURVE ( 'NONE', #803, #11, #455, .T. ) ;
#567 = FACE_OUTER_BOUND ( 'NONE', #935, .T. ) ;
#568 = ORIENTED_EDGE ( 'NONE', *, *, #306, .T. ) ;
#569 = MANIFOLD_SOLID_BREP ( '–ÊŽæ‚è2', #83 ) ;
#570 = CARTESIAN_POINT ( 'NONE',  ( 0.000000000000000000, 6.113248654051862907, 16.73205080756887497 ) ) ;
#571 = DIRECTION ( 'NONE',  ( -0.000000000000000000, -1.000000000000000000, -0.000000000000000000 ) ) ;
#572 = VERTEX_POINT ( 'NONE', #619 ) ;
#573 = VERTEX_POINT ( 'NONE', #197 ) ;
#574 = DIRECTION ( 'NONE',  ( 0.000000000000000000, 0.5000000000000004441, -0.8660254037844383745 ) ) ;
#575 = EDGE_CURVE ( 'NONE', #165, #558, #175, .T. ) ;
#576 = CARTESIAN_POINT ( 'NONE',  ( 6.176405174240643170, 4.226497308103741801, 19.99999999999999645 ) ) ;
#577 = ORIENTED_EDGE ( 'NONE', *, *, #71, .T. ) ;
#578 = AXIS2_PLACEMENT_3D ( 'NONE', #527, #383, #218 ) ;
#579 = AXIS2_PLACEMENT_3D ( 'NONE', #491, #857, #623 ) ;
#580 = CARTESIAN_POINT ( 'NONE',  ( -5.058019801410940985, 4.226497308103741801, 20.00000000000000000 ) ) ;
#581 = AXIS2_PLACEMENT_3D ( 'NONE', #380, #664, #883 ) ;
#582 = AXIS2_PLACEMENT_3D ( 'NONE', #77, #666, #17 ) ;
#583 = CARTESIAN_POINT ( 'NONE',  ( 15.00000000000000000, 9.499999999999996447, 0.000000000000000000 ) ) ;
#584 = DIRECTION ( 'NONE',  ( 0.000000000000000000, 1.000000000000000000, 0.000000000000000000 ) ) ;
#585 = ORIENTED_EDGE ( 'NONE', *, *, #325, .T. ) ;
#586 = ADVANCED_FACE ( 'NONE', ( #601, #479 ), #5, .T. ) ;
#587 = CARTESIAN_POINT ( 'NONE',  ( 71.38765549944001521, 9.999999999999998224, 10.00000000000000000 ) ) ;
#588 = FACE_OUTER_BOUND ( 'NONE', #925, .T. ) ;
#589 = EDGE_CURVE ( 'NONE', #898, #898, #126, .T. ) ;
#590 = CARTESIAN_POINT ( 'NONE',  ( 15.00000000000000000, 10.00000000000000000, 0.000000000000000000 ) ) ;
#591 = ORIENTED_EDGE ( 'NONE', *, *, #520, .T. ) ;
#592 = EDGE_CURVE ( 'NONE', #265, #613, #395, .T. ) ;
#593 = CARTESIAN_POINT ( 'NONE',  ( 0.000000000000000000, 40.88823940164497373, 34.50000000000000711 ) ) ;
#594 = DIRECTION ( 'NONE',  ( 0.000000000000000000, -0.000000000000000000, 1.000000000000000000 ) ) ;
#595 = FACE_OUTER_BOUND ( 'NONE', #114, .T. ) ;
#596 = ORIENTED_EDGE ( 'NONE', *, *, #924, .T. ) ;
#597 = CARTESIAN_POINT ( 'NONE',  ( -7.384442116008590240, 7.266902106178647180, 14.73386441415806658 ) ) ;
#598 = AXIS2_PLACEMENT_3D ( 'NONE', #412, #322, #766 ) ;
#599 = DIRECTION ( 'NONE',  ( 0.000000000000000000, 0.000000000000000000, 1.000000000000000000 ) ) ;
#600 = ORIENTED_EDGE ( 'NONE', *, *, #745, .T. ) ;
#601 = FACE_OUTER_BOUND ( 'NONE', #337, .T. ) ;
#602 = CARTESIAN_POINT ( 'NONE',  ( 4.951929810480172556, 10.00000000000000000, 1.000000000000002665 ) ) ;
#603 = VERTEX_POINT ( 'NONE', #98 ) ;
#604 = DIRECTION ( 'NONE',  ( -0.000000000000000000, -1.000000000000000000, 0.000000000000000000 ) ) ;
#605 = EDGE_CURVE ( 'NONE', #613, #109, #463, .T. ) ;
#606 = CARTESIAN_POINT ( 'NONE',  ( 7.000000000000000000, 0.000000000000000000, 20.00000000000000000 ) ) ;
#607 = EDGE_LOOP ( 'NONE', ( #428, #288, #239, #59 ) ) ;
#608 = EDGE_CURVE ( 'NONE', #196, #109, #190, .T. ) ;
#609 = CARTESIAN_POINT ( 'NONE',  ( 16.20233139056659510, 10.00000000000000000, 3.815022834434700361 ) ) ;
#610 = MECHANICAL_DESIGN_GEOMETRIC_PRESENTATION_REPRESENTATION (  '', ( #357 ), #219 ) ;
#611 = DIRECTION ( 'NONE',  ( 0.000000000000000000, -0.000000000000000000, 1.000000000000000000 ) ) ;
#612 = AXIS2_PLACEMENT_3D ( 'NONE', #848, #198, #420 ) ;
#613 = VERTEX_POINT ( 'NONE', #111 ) ;
#614 = DIRECTION ( 'NONE',  ( 0.000000000000000000, 1.000000000000000000, 0.000000000000000000 ) ) ;
#615 = DIRECTION ( 'NONE',  ( 0.000000000000000000, -0.8660254037844387076, -0.4999999999999998890 ) ) ;
#616 = EDGE_CURVE ( 'NONE', #11, #32, #913, .T. ) ;
#617 = ORIENTED_EDGE ( 'NONE', *, *, #787, .T. ) ;
#618 = CARTESIAN_POINT ( 'NONE',  ( 0.000000000000000000, 35.20670407169037475, 17.94070785647895505 ) ) ;
#619 = CARTESIAN_POINT ( 'NONE',  ( 4.951929810480172556, 0.000000000000000000, 6.000000000000002665 ) ) ;
#620 = FACE_OUTER_BOUND ( 'NONE', #837, .T. ) ;
#621 = ORIENTED_EDGE ( 'NONE', *, *, #104, .T. ) ;
#622 = SURFACE_STYLE_FILL_AREA ( #804 ) ;
#623 = DIRECTION ( 'NONE',  ( 0.000000000000000000, 0.000000000000000000, -1.000000000000000000 ) ) ;
#624 = CYLINDRICAL_SURFACE ( 'NONE', #466, 12.50000000000000355 ) ;
#625 = AXIS2_PLACEMENT_3D ( 'NONE', #297, #18, #663 ) ;
#626 = CIRCLE ( 'NONE', #640, 5.000000000000000000 ) ;
#627 = ORIENTED_EDGE ( 'NONE', *, *, #589, .F. ) ;
#628 = CIRCLE ( 'NONE', #750, 2.000000000000001776 ) ;
#629 = FACE_OUTER_BOUND ( 'NONE', #29, .T. ) ;
#630 = CARTESIAN_POINT ( 'NONE',  ( 16.20233139056659510, 10.00000000000000000, 3.815022834434700361 ) ) ;
#631 = ORIENTED_EDGE ( 'NONE', *, *, #487, .T. ) ;
#632 = CARTESIAN_POINT ( 'NONE',  ( 7.746877602391748496, 8.226048032977278268, 13.07257493707010099 ) ) ;
#633 = CARTESIAN_POINT ( 'NONE',  ( -7.054656334662484873, 5.314258684837817270, 18.11594202898551131 ) ) ;
#634 = ORIENTED_EDGE ( 'NONE', *, *, #172, .T. ) ;
#635 = EDGE_CURVE ( 'NONE', #518, #87, #181, .T. ) ;
#636 = FACE_OUTER_BOUND ( 'NONE', #645, .T. ) ;
#637 = DIRECTION ( 'NONE',  ( 0.000000000000000000, 1.000000000000000000, -0.000000000000000000 ) ) ;
#638 = ORIENTED_EDGE ( 'NONE', *, *, #616, .F. ) ;
#639 = ORIENTED_EDGE ( 'NONE', *, *, #605, .T. ) ;
#640 = AXIS2_PLACEMENT_3D ( 'NONE', #482, #561, #852 ) ;
#641 = CIRCLE ( 'NONE', #763, 11.00000000000000000 ) ;
#642 = AXIS2_PLACEMENT_3D ( 'NONE', #382, #302, #646 ) ;
#643 = CARTESIAN_POINT ( 'NONE',  ( 7.153228237049819249, 6.294314089484719155, 16.41843627390460369 ) ) ;
#644 = FACE_OUTER_BOUND ( 'NONE', #737, .T. ) ;
#645 = EDGE_LOOP ( 'NONE', ( #347 ) ) ;
#646 = DIRECTION ( 'NONE',  ( 0.000000000000000000, 0.4999999999999983347, -0.8660254037844394848 ) ) ;
#647 = CARTESIAN_POINT ( 'NONE',  ( 6.945996091403636719, 10.00000000000000000, 6.000000000000002665 ) ) ;
#648 = EDGE_LOOP ( 'NONE', ( #509 ) ) ;
#649 = ADVANCED_FACE ( 'NONE', ( #186, #102 ), #895, .F. ) ;
#650 = CARTESIAN_POINT ( 'NONE',  ( 0.000000000000000000, 26.60074402784842462, 20.24666790032092933 ) ) ;
#651 = CARTESIAN_POINT ( 'NONE',  ( -15.00000000000000000, 10.00000000000000000, 0.000000000000000000 ) ) ;
#652 = LINE ( 'NONE', #93, #799 ) ;
#653 =( NAMED_UNIT ( * ) SI_UNIT ( $, .STERADIAN. ) SOLID_ANGLE_UNIT ( ) );
#654 = CIRCLE ( 'NONE', #4, 5.000000000000000000 ) ;
#655 = AXIS2_PLACEMENT_3D ( 'NONE', #324, #614, #681 ) ;
#656 = DIRECTION ( 'NONE',  ( -1.000000000000000000, 0.000000000000000000, 0.000000000000000000 ) ) ;
#657 = EDGE_CURVE ( 'NONE', #295, #708, #467, .T. ) ;
#658 = PRODUCT_DEFINITION_FORMATION_WITH_SPECIFIED_SOURCE ( 'ANY', '', #74, .NOT_KNOWN. ) ;
#659 = CARTESIAN_POINT ( 'NONE',  ( 39.50000000000000000, 0.000000000000000000, 20.00000000000000355 ) ) ;
#660 = ADVANCED_FACE ( 'NONE', ( #408 ), #537, .F. ) ;
#661 = FACE_BOUND ( 'NONE', #398, .T. ) ;
#662 = ORIENTED_EDGE ( 'NONE', *, *, #924, .F. ) ;
#663 = DIRECTION ( 'NONE',  ( 0.000000000000000000, 0.000000000000000000, -1.000000000000000000 ) ) ;
#664 = DIRECTION ( 'NONE',  ( -0.000000000000000000, -1.000000000000000000, -0.000000000000000000 ) ) ;
#665 = VERTEX_POINT ( 'NONE', #399 ) ;
#666 = DIRECTION ( 'NONE',  ( -0.000000000000000000, -1.000000000000000000, 0.000000000000000000 ) ) ;
#667 = CYLINDRICAL_SURFACE ( 'NONE', #625, 2.000000000000001776 ) ;
#668 = CARTESIAN_POINT ( 'NONE',  ( 0.000000000000000000, 40.88823940164497373, 34.50000000000001421 ) ) ;
#669 = ORIENTED_EDGE ( 'NONE', *, *, #566, .T. ) ;
#670 = VECTOR ( 'NONE', #89, 1000.000000000000000 ) ;
#671 = FACE_OUTER_BOUND ( 'NONE', #376, .T. ) ;
#672 = VECTOR ( 'NONE', #807, 1000.000000000000000 ) ;
#673 = AXIS2_PLACEMENT_3D ( 'NONE', #276, #699, #912 ) ;
#674 = AXIS2_PLACEMENT_3D ( 'NONE', #542, #99, #679 ) ;
#675 = CARTESIAN_POINT ( 'NONE',  ( 15.00000000000000000, 9.499999999999996447, 0.000000000000000000 ) ) ;
#676 = ORIENTED_EDGE ( 'NONE', *, *, #926, .F. ) ;
#677 = EDGE_CURVE ( 'NONE', #254, #254, #374, .T. ) ;
#678 = CARTESIAN_POINT ( 'NONE',  ( -5.058019801410940985, 10.00000000000000000, 20.00000000000000000 ) ) ;
#679 = DIRECTION ( 'NONE',  ( 0.000000000000000000, 0.000000000000000000, -1.000000000000000000 ) ) ;
#680 = ORIENTED_EDGE ( 'NONE', *, *, #845, .T. ) ;
#681 = DIRECTION ( 'NONE',  ( 0.000000000000000000, 0.000000000000000000, 1.000000000000000000 ) ) ;
#682 = CYLINDRICAL_SURFACE ( 'NONE', #674, 11.00000000000000000 ) ;
#683 = ORIENTED_EDGE ( 'NONE', *, *, #845, .F. ) ;
#684 = DIRECTION ( 'NONE',  ( -0.000000000000000000, -1.000000000000000000, -0.000000000000000000 ) ) ;
#685 = EDGE_CURVE ( 'NONE', #759, #143, #51, .T. ) ;
#686 = DIRECTION ( 'NONE',  ( 0.000000000000000000, 0.000000000000000000, 1.000000000000000000 ) ) ;
#687 = AXIS2_PLACEMENT_3D ( 'NONE', #125, #844, #861 ) ;
#688 = EDGE_CURVE ( 'NONE', #106, #106, #330, .T. ) ;
#689 = VECTOR ( 'NONE', #441, 1000.000000000000000 ) ;
#690 = MECHANICAL_DESIGN_GEOMETRIC_PRESENTATION_REPRESENTATION (  '', ( #734 ), #253 ) ;
#691 = ORIENTED_EDGE ( 'NONE', *, *, #424, .T. ) ;
#692 = VERTEX_POINT ( 'NONE', #334 ) ;
#693 = FILL_AREA_STYLE ('',( #760 ) ) ;
#694 = DIRECTION ( 'NONE',  ( 0.000000000000000000, 1.000000000000000000, 0.000000000000000000 ) ) ;
#695 = ORIENTED_EDGE ( 'NONE', *, *, #343, .F. ) ;
#696 = CARTESIAN_POINT ( 'NONE',  ( -39.50000000000000000, 0.000000000000000000, 20.00000000000000355 ) ) ;
#697 = PLANE ( 'NONE',  #828 ) ;
#698 = EDGE_LOOP ( 'NONE', ( #274 ) ) ;
#699 = DIRECTION ( 'NONE',  ( 0.000000000000000000, 1.000000000000000000, 0.000000000000000000 ) ) ;
#700 = FACE_OUTER_BOUND ( 'NONE', #418, .T. ) ;
#701 = CONICAL_SURFACE ( 'NONE', #250, 2.999999999999988898, 0.7853981633974431720 ) ;
#702 = AXIS2_PLACEMENT_3D ( 'NONE', #484, #783, #793 ) ;
#703 = ORIENTED_EDGE ( 'NONE', *, *, #13, .F. ) ;
#704 = AXIS2_PLACEMENT_3D ( 'NONE', #668, #243, #528 ) ;
#705 = EDGE_CURVE ( 'NONE', #803, #831, #900, .T. ) ;
#706 = CYLINDRICAL_SURFACE ( 'NONE', #579, 32.50000000000000711 ) ;
#707 = CARTESIAN_POINT ( 'NONE',  ( -8.853889432723235586, 9.999999999999998224, 10.00000000000000000 ) ) ;
#708 = VERTEX_POINT ( 'NONE', #565 ) ;
#709 = ADVANCED_FACE ( 'NONE', ( #352, #629 ), #922, .T. ) ;
#710 = DIRECTION ( 'NONE',  ( 0.000000000000000000, 0.5000000000000003331, -0.8660254037844384856 ) ) ;
#711 = CARTESIAN_POINT ( 'NONE',  ( -8.870204652546982871, 0.000000000000000000, 4.105981690549113772 ) ) ;
#712 = ORIENTED_EDGE ( 'NONE', *, *, #757, .T. ) ;
#713 =( BOUNDED_CURVE ( )  B_SPLINE_CURVE ( 3, ( #632, #50, #643, #775 ),
 .UNSPECIFIED., .F., .F. ) 
 B_SPLINE_CURVE_WITH_KNOTS ( ( 4, 4 ),
 ( 4.497589480230038461, 4.654385446752205446 ),
 .UNSPECIFIED. ) 
 CURVE ( )  GEOMETRIC_REPRESENTATION_ITEM ( )  RATIONAL_B_SPLINE_CURVE ( ( 1.000000000000000000, 0.9979523012005879767, 0.9979523012005879767, 1.000000000000000000 ) ) 
 REPRESENTATION_ITEM ( '' )  );
#714 = CARTESIAN_POINT ( 'NONE',  ( 8.870204652546982871, 10.00000000000000000, 4.105981690549113772 ) ) ;
#715 = FACE_OUTER_BOUND ( 'NONE', #752, .T. ) ;
#716 = EDGE_LOOP ( 'NONE', ( #891, #639, #244, #724, #206, #767, #183, #746, #617, #638, #493, #676, #531, #316 ) ) ;
#717 = AXIS2_PLACEMENT_3D ( 'NONE', #647, #426, #722 ) ;
#718 = AXIS2_PLACEMENT_3D ( 'NONE', #431, #934, #795 ) ;
#719 = AXIS2_PLACEMENT_3D ( 'NONE', #756, #470, #107 ) ;
#720 = VECTOR ( 'NONE', #171, 1000.000000000000000 ) ;
#721 = DIRECTION ( 'NONE',  ( -0.000000000000000000, -1.000000000000000000, -0.000000000000000000 ) ) ;
#722 = DIRECTION ( 'NONE',  ( 1.000000000000000000, 0.000000000000000000, -0.000000000000000000 ) ) ;
#723 = FACE_OUTER_BOUND ( 'NONE', #698, .T. ) ;
#724 = ORIENTED_EDGE ( 'NONE', *, *, #878, .F. ) ;
#725 = CARTESIAN_POINT ( 'NONE',  ( -15.00000000000000000, 0.000000000000000000, 2.999999999999988898 ) ) ;
#726 = DIRECTION ( 'NONE',  ( 0.000000000000000000, 1.000000000000000000, 0.000000000000000000 ) ) ;
#727 = DIRECTION ( 'NONE',  ( 0.000000000000000000, 1.000000000000000000, -0.000000000000000000 ) ) ;
#728 = CARTESIAN_POINT ( 'NONE',  ( -15.00000000000000000, 9.499999999999996447, 2.500000000000000444 ) ) ;
#729 = DIRECTION ( 'NONE',  ( -0.000000000000000000, 0.8660254037844395958, 0.4999999999999985567 ) ) ;
#730 = CARTESIAN_POINT ( 'NONE',  ( 15.00000000000000000, 0.4999999999999935052, 0.000000000000000000 ) ) ;
#731 = ORIENTED_EDGE ( 'NONE', *, *, #33, .F. ) ;
#732 = CIRCLE ( 'NONE', #612, 2.999999999999988898 ) ;
#733 = DIRECTION ( 'NONE',  ( 0.000000000000000000, 0.000000000000000000, 1.000000000000000000 ) ) ;
#734 = STYLED_ITEM ( 'NONE', ( #213 ), #860 ) ;
#735 = DIRECTION ( 'NONE',  ( 0.000000000000000000, 0.000000000000000000, 1.000000000000000000 ) ) ;
#736 = CARTESIAN_POINT ( 'NONE',  ( -15.00000000000000000, 9.499999999999996447, 0.000000000000000000 ) ) ;
#737 = EDGE_LOOP ( 'NONE', ( #278 ) ) ;
#738 = ADVANCED_FACE ( 'NONE', ( #210 ), #706, .F. ) ;
#739 = CARTESIAN_POINT ( 'NONE',  ( -11.06666666666666998, 10.00000000000000000, -0.7272474743090479032 ) ) ;
#740 = CARTESIAN_POINT ( 'NONE',  ( 11.06666666666666643, 10.00000000000000000, -0.7272474743090472371 ) ) ;
#741 = CARTESIAN_POINT ( 'NONE',  ( -0.2500000000000002220, 0.000000000000000000, -2.727178028658929776 ) ) ;
#742 = ORIENTED_EDGE ( 'NONE', *, *, #688, .F. ) ;
#743 = CARTESIAN_POINT ( 'NONE',  ( -7.746877602391739615, 8.226048032977276492, 13.07257493707010276 ) ) ;
#744 = DIRECTION ( 'NONE',  ( -0.000000000000000000, -1.000000000000000000, -0.000000000000000000 ) ) ;
#745 = EDGE_CURVE ( 'NONE', #920, #165, #56, .T. ) ;
#746 = ORIENTED_EDGE ( 'NONE', *, *, #71, .F. ) ;
#747 = AXIS2_PLACEMENT_3D ( 'NONE', #822, #263, #892 ) ;
#748 = CARTESIAN_POINT ( 'NONE',  ( 0.2500000000000002220, 0.000000000000000000, -2.727178028658929776 ) ) ;
#749 = AXIS2_PLACEMENT_3D ( 'NONE', #675, #584, #25 ) ;
#750 = AXIS2_PLACEMENT_3D ( 'NONE', #446, #409, #264 ) ;
#751 = DIRECTION ( 'NONE',  ( -0.000000000000000000, -1.000000000000000000, -0.000000000000000000 ) ) ;
#752 = EDGE_LOOP ( 'NONE', ( #894 ) ) ;
#753 = FACE_OUTER_BOUND ( 'NONE', #607, .T. ) ;
#754 = ORIENTED_EDGE ( 'NONE', *, *, #140, .F. ) ;
#755 = ADVANCED_FACE ( 'NONE', ( #636 ), #918, .T. ) ;
#756 = CARTESIAN_POINT ( 'NONE',  ( -19.95961698608723367, 10.00000000000000000, 15.73696919204314248 ) ) ;
#757 = EDGE_CURVE ( 'NONE', #185, #185, #732, .T. ) ;
#758 = DIRECTION ( 'NONE',  ( 0.000000000000000000, 1.000000000000000000, 0.000000000000000000 ) ) ;
#759 = VERTEX_POINT ( 'NONE', #133 ) ;
#760 = FILL_AREA_STYLE_COLOUR ( '', #797 ) ;
#761 = LINE ( 'NONE', #326, #550 ) ;
#762 = AXIS2_PLACEMENT_3D ( 'NONE', #241, #67, #515 ) ;
#763 = AXIS2_PLACEMENT_3D ( 'NONE', #741, #299, #599 ) ;
#764 = EDGE_LOOP ( 'NONE', ( #771, #91, #540, #214, #851, #568, #174, #866, #460, #847 ) ) ;
#765 =( LENGTH_UNIT ( ) NAMED_UNIT ( * ) SI_UNIT ( .MILLI., .METRE. ) );
#766 = DIRECTION ( 'NONE',  ( 0.000000000000000000, 0.000000000000000000, -1.000000000000000000 ) ) ;
#767 = ORIENTED_EDGE ( 'NONE', *, *, #101, .F. ) ;
#768 = APPLICATION_PROTOCOL_DEFINITION ( 'draft international standard', 'automotive_design', 1998, #423 ) ;
#769 = FACE_OUTER_BOUND ( 'NONE', #233, .T. ) ;
#770 = CARTESIAN_POINT ( 'NONE',  ( -19.95961698608723367, 10.00000000000000000, 15.73696919204314248 ) ) ;
#771 = ORIENTED_EDGE ( 'NONE', *, *, #855, .F. ) ;
#772 = ADVANCED_FACE ( 'NONE', ( #769 ), #358, .F. ) ;
#773 = UNCERTAINTY_MEASURE_WITH_UNIT (LENGTH_MEASURE( 1.000000000000000082E-05 ), #510, 'distance_accuracy_value', 'NONE');
#774 = DIRECTION ( 'NONE',  ( 0.000000000000000000, 0.000000000000000000, 1.000000000000000000 ) ) ;
#775 = CARTESIAN_POINT ( 'NONE',  ( 7.054656334662484873, 5.314258684837817270, 18.11594202898551131 ) ) ;
#776 = EDGE_CURVE ( 'NONE', #518, #393, #713, .T. ) ;
#777 = CARTESIAN_POINT ( 'NONE',  ( 7.054656334662484873, 5.314258684837817270, 18.11594202898551131 ) ) ;
#778 = CIRCLE ( 'NONE', #110, 2.500000000000000444 ) ;
#779 = AXIS2_PLACEMENT_3D ( 'NONE', #696, #827, #319 ) ;
#780 = ORIENTED_EDGE ( 'NONE', *, *, #635, .F. ) ;
#781 = EDGE_LOOP ( 'NONE', ( #930, #555, #135, #669 ) ) ;
#782 =( BOUNDED_CURVE ( )  B_SPLINE_CURVE ( 3, ( #475, #829, #117, #178 ),
 .UNSPECIFIED., .F., .T. ) 
 B_SPLINE_CURVE_WITH_KNOTS ( ( 4, 4 ),
 ( 4.235567479168457439, 4.497589480230038461 ),
 .UNSPECIFIED. ) 
 CURVE ( )  GEOMETRIC_REPRESENTATION_ITEM ( )  RATIONAL_B_SPLINE_CURVE ( ( 1.000000000000000000, 0.9942868845343408868, 0.9942868845343408868, 1.000000000000000000 ) ) 
 REPRESENTATION_ITEM ( '' )  );
#783 = DIRECTION ( 'NONE',  ( -0.000000000000000000, -1.000000000000000000, -0.000000000000000000 ) ) ;
#784 = CARTESIAN_POINT ( 'NONE',  ( 0.000000000000000000, 40.45522669975280650, 34.25000000000004263 ) ) ;
#785 = ORIENTED_EDGE ( 'NONE', *, *, #905, .F. ) ;
#786 = UNCERTAINTY_MEASURE_WITH_UNIT (LENGTH_MEASURE( 1.000000000000000082E-05 ), #415, 'distance_accuracy_value', 'NONE');
#787 = EDGE_CURVE ( 'NONE', #572, #32, #915, .T. ) ;
#788 = DIRECTION ( 'NONE',  ( 0.000000000000000000, 0.8660254037844384856, 0.5000000000000004441 ) ) ;
#789 =( BOUNDED_CURVE ( )  B_SPLINE_CURVE ( 3, ( #436, #195, #127, #707 ),
 .UNSPECIFIED., .F., .T. ) 
 B_SPLINE_CURVE_WITH_KNOTS ( ( 4, 4 ),
 ( 1.785595826949547993, 2.047617828011129237 ),
 .UNSPECIFIED. ) 
 CURVE ( )  GEOMETRIC_REPRESENTATION_ITEM ( )  RATIONAL_B_SPLINE_CURVE ( ( 1.000000000000000000, 0.9942868845343408868, 0.9942868845343408868, 1.000000000000000000 ) ) 
 REPRESENTATION_ITEM ( '' )  );
#790 = FACE_BOUND ( 'NONE', #179, .T. ) ;
#791 = EDGE_CURVE ( 'NONE', #692, #692, #887, .T. ) ;
#792 = EDGE_LOOP ( 'NONE', ( #136 ) ) ;
#793 = DIRECTION ( 'NONE',  ( 0.000000000000000000, 0.000000000000000000, -1.000000000000000000 ) ) ;
#794 = FACE_BOUND ( 'NONE', #792, .T. ) ;
#795 = DIRECTION ( 'NONE',  ( 0.000000000000000000, 0.000000000000000000, -1.000000000000000000 ) ) ;
#796 = AXIS2_PLACEMENT_3D ( 'NONE', #130, #571, #500 ) ;
#797 = COLOUR_RGB ( '',0.7921568627450980005, 0.8196078431372548767, 0.9333333333333333481 ) ;
#798 = EDGE_LOOP ( 'NONE', ( #909 ) ) ;
#799 = VECTOR ( 'NONE', #308, 1000.000000000000000 ) ;
#800 = AXIS2_PLACEMENT_3D ( 'NONE', #286, #434, #495 ) ;
#801 = CARTESIAN_POINT ( 'NONE',  ( 15.00000000000000000, 0.4999999999999935052, 2.500000000000000444 ) ) ;
#802 = DIRECTION ( 'NONE',  ( 0.000000000000000000, 0.000000000000000000, -1.000000000000000000 ) ) ;
#803 = VERTEX_POINT ( 'NONE', #349 ) ;
#804 = FILL_AREA_STYLE ('',( #910 ) ) ;
#805 = VERTEX_POINT ( 'NONE', #296 ) ;
#806 = CARTESIAN_POINT ( 'NONE',  ( 19.95961698608723367, 10.00000000000000000, 15.73696919204314248 ) ) ;
#807 = DIRECTION ( 'NONE',  ( -0.000000000000000000, -1.000000000000000000, -0.000000000000000000 ) ) ;
#808 = ORIENTED_EDGE ( 'NONE', *, *, #414, .T. ) ;
#809 = FACE_OUTER_BOUND ( 'NONE', #764, .T. ) ;
#810 = ADVANCED_FACE ( 'NONE', ( #927, #137 ), #841, .F. ) ;
#811 = CARTESIAN_POINT ( 'NONE',  ( -8.870204652546982871, 10.00000000000000000, 4.105981690549113772 ) ) ;
#812 = EDGE_LOOP ( 'NONE', ( #897 ) ) ;
#813 = CIRCLE ( 'NONE', #203, 11.50000000000000533 ) ;
#814 = LINE ( 'NONE', #291, #36 ) ;
#815 = CARTESIAN_POINT ( 'NONE',  ( -16.20233139056659866, 0.000000000000000000, 3.815022834434696364 ) ) ;
#816 = CARTESIAN_POINT ( 'NONE',  ( 6.945996091403636719, 0.000000000000000000, 6.000000000000002665 ) ) ;
#817 = ORIENTED_EDGE ( 'NONE', *, *, #559, .T. ) ;
#818 = DIRECTION ( 'NONE',  ( -0.000000000000000000, -1.000000000000000000, -0.000000000000000000 ) ) ;
#819 = DIRECTION ( 'NONE',  ( -0.000000000000000000, -0.8660254037844384856, -0.5000000000000003331 ) ) ;
#820 = DIRECTION ( 'NONE',  ( 0.000000000000000000, 0.000000000000000000, -1.000000000000000000 ) ) ;
#821 = EDGE_LOOP ( 'NONE', ( #631 ) ) ;
#822 = CARTESIAN_POINT ( 'NONE',  ( 0.000000000000000000, 29.45670407169036764, 27.90000000000000213 ) ) ;
#823 = EDGE_CURVE ( 'NONE', #665, #497, #626, .T. ) ;
#824 = DIRECTION ( 'NONE',  ( -0.000000000000000000, -1.000000000000000000, -0.000000000000000000 ) ) ;
#825 = ORIENTED_EDGE ( 'NONE', *, *, #856, .T. ) ;
#826 = CONICAL_SURFACE ( 'NONE', #546, 9.000000000000028422, 0.7853981633974675969 ) ;
#827 = DIRECTION ( 'NONE',  ( -0.000000000000000000, -1.000000000000000000, 0.000000000000000000 ) ) ;
#828 = AXIS2_PLACEMENT_3D ( 'NONE', #31, #906, #611 ) ;
#829 = CARTESIAN_POINT ( 'NONE',  ( 8.351379979123723984, 9.438372834008550427, 10.97276678640810665 ) ) ;
#830 = EDGE_CURVE ( 'NONE', #348, #348, #813, .T. ) ;
#831 = VERTEX_POINT ( 'NONE', #714 ) ;
#832 = EDGE_CURVE ( 'NONE', #410, #265, #814, .T. ) ;
#833 = FACE_OUTER_BOUND ( 'NONE', #385, .T. ) ;
#834 = EDGE_LOOP ( 'NONE', ( #44 ) ) ;
#835 = DIRECTION ( 'NONE',  ( 0.000000000000000000, 0.5000000000000003331, -0.8660254037844384856 ) ) ;
#836 = FACE_BOUND ( 'NONE', #850, .T. ) ;
#837 = EDGE_LOOP ( 'NONE', ( #365, #498, #6, #585 ) ) ;
#838 = SURFACE_STYLE_USAGE ( .BOTH. , #544 ) ;
#839 = CYLINDRICAL_SURFACE ( 'NONE', #598, 5.000000000000000000 ) ;
#840 = AXIS2_PLACEMENT_3D ( 'NONE', #513, #727, #820 ) ;
#841 = CONICAL_SURFACE ( 'NONE', #281, 2.999999999999988898, 0.7853981633974431720 ) ;
#842 = ORIENTED_EDGE ( 'NONE', *, *, #272, .F. ) ;
#843 = DIRECTION ( 'NONE',  ( 1.000000000000000000, 0.000000000000000000, 0.000000000000000000 ) ) ;
#844 = DIRECTION ( 'NONE',  ( -0.000000000000000000, -0.8660254037844384856, -0.5000000000000003331 ) ) ;
#845 = EDGE_CURVE ( 'NONE', #603, #265, #494, .T. ) ;
#846 = DIRECTION ( 'NONE',  ( -0.000000000000000000, -1.000000000000000000, -0.000000000000000000 ) ) ;
#847 = ORIENTED_EDGE ( 'NONE', *, *, #343, .T. ) ;
#848 = CARTESIAN_POINT ( 'NONE',  ( 15.00000000000000000, 0.000000000000000000, 0.000000000000000000 ) ) ;
#849 = CYLINDRICAL_SURFACE ( 'NONE', #796, 5.000000000000000000 ) ;
#850 = EDGE_LOOP ( 'NONE', ( #251 ) ) ;
#851 = ORIENTED_EDGE ( 'NONE', *, *, #33, .T. ) ;
#852 = DIRECTION ( 'NONE',  ( 0.000000000000000000, 0.000000000000000000, 1.000000000000000000 ) ) ;
#853 = DIRECTION ( 'NONE',  ( 0.000000000000000000, 0.000000000000000000, -1.000000000000000000 ) ) ;
#854 = ORIENTED_EDGE ( 'NONE', *, *, #520, .F. ) ;
#855 = EDGE_CURVE ( 'NONE', #270, #560, #503, .T. ) ;
#856 = EDGE_CURVE ( 'NONE', #904, #572, #72, .T. ) ;
#857 = DIRECTION ( 'NONE',  ( -0.000000000000000000, -1.000000000000000000, -0.000000000000000000 ) ) ;
#858 = CARTESIAN_POINT ( 'NONE',  ( 15.00000000000000000, 10.00000000000000000, 0.000000000000000000 ) ) ;
#859 = FACE_OUTER_BOUND ( 'NONE', #76, .T. ) ;
#860 = ADVANCED_BREP_SHAPE_REPRESENTATION ( 'Lollipop antena mount', ( #569, #317 ), #361 ) ;
#861 = DIRECTION ( 'NONE',  ( 0.000000000000000000, 0.5000000000000003331, -0.8660254037844383745 ) ) ;
#862 = CARTESIAN_POINT ( 'NONE',  ( 15.00000000000000000, 10.00000000000000000, 0.000000000000000000 ) ) ;
#863 = EDGE_LOOP ( 'NONE', ( #731, #262, #192, #481 ) ) ;
#864 = VERTEX_POINT ( 'NONE', #363 ) ;
#865 = DIRECTION ( 'NONE',  ( 0.000000000000000000, 0.000000000000000000, 1.000000000000000000 ) ) ;
#866 = ORIENTED_EDGE ( 'NONE', *, *, #140, .T. ) ;
#867 = VECTOR ( 'NONE', #61, 1000.000000000000000 ) ;
#868 = SHAPE_DEFINITION_REPRESENTATION ( #452, #860 ) ;
#869 = UNCERTAINTY_MEASURE_WITH_UNIT (LENGTH_MEASURE( 1.000000000000000082E-05 ), #765, 'distance_accuracy_value', 'NONE');
#870 = CIRCLE ( 'NONE', #581, 11.00000000000000000 ) ;
#871 = VECTOR ( 'NONE', #292, 1000.000000000000000 ) ;
#872 = VERTEX_POINT ( 'NONE', #224 ) ;
#873 = CARTESIAN_POINT ( 'NONE',  ( 0.000000000000000000, 40.88823940164497373, 34.50000000000001421 ) ) ;
#874 = ADVANCED_FACE ( 'NONE', ( #939, #454 ), #155, .F. ) ;
#875 = FACE_OUTER_BOUND ( 'NONE', #54, .T. ) ;
#876 = ORIENTED_EDGE ( 'NONE', *, *, #58, .T. ) ;
#877 = CARTESIAN_POINT ( 'NONE',  ( 4.951929810480172556, 0.000000000000000000, 6.000000000000002665 ) ) ;
#878 = EDGE_CURVE ( 'NONE', #558, #196, #238, .T. ) ;
#879 = CARTESIAN_POINT ( 'NONE',  ( 15.00000000000000000, 0.000000000000000000, 0.000000000000000000 ) ) ;
#880 = DIRECTION ( 'NONE',  ( 0.000000000000000000, 0.5000000000000000000, -0.8660254037844385966 ) ) ;
#881 = ORIENTED_EDGE ( 'NONE', *, *, #377, .F. ) ;
#882 = DIRECTION ( 'NONE',  ( -0.000000000000000000, -1.000000000000000000, -0.000000000000000000 ) ) ;
#883 = DIRECTION ( 'NONE',  ( 0.000000000000000000, 0.000000000000000000, 1.000000000000000000 ) ) ;
#884 =( BOUNDED_CURVE ( )  B_SPLINE_CURVE ( 3, ( #633, #367, #597, #743 ),
 .UNSPECIFIED., .F., .F. ) 
 B_SPLINE_CURVE_WITH_KNOTS ( ( 4, 4 ),
 ( 1.628799860427381008, 1.785595826949547993 ),
 .UNSPECIFIED. ) 
 CURVE ( )  GEOMETRIC_REPRESENTATION_ITEM ( )  RATIONAL_B_SPLINE_CURVE ( ( 1.000000000000000000, 0.9979523012005879767, 0.9979523012005879767, 1.000000000000000000 ) ) 
 REPRESENTATION_ITEM ( '' )  );
#885 = ORIENTED_EDGE ( 'NONE', *, *, #685, .F. ) ;
#886 = AXIS2_PLACEMENT_3D ( 'NONE', #417, #557, #353 ) ;
#887 = CIRCLE ( 'NONE', #687, 2.000000000000002220 ) ;
#888 = CARTESIAN_POINT ( 'NONE',  ( 0.000000000000000000, 9.713248654051870545, 10.49666790032091868 ) ) ;
#889 = FACE_BOUND ( 'NONE', #370, .T. ) ;
#890 = CARTESIAN_POINT ( 'NONE',  ( -16.20233139056659866, 10.00000000000000000, 3.815022834434696364 ) ) ;
#891 = ORIENTED_EDGE ( 'NONE', *, *, #226, .F. ) ;
#892 = DIRECTION ( 'NONE',  ( 0.000000000000000000, 0.5000000000000002220, -0.8660254037844384856 ) ) ;
#893 = CYLINDRICAL_SURFACE ( 'NONE', #523, 2.000000000000001776 ) ;
#894 = ORIENTED_EDGE ( 'NONE', *, *, #905, .T. ) ;
#895 = CYLINDRICAL_SURFACE ( 'NONE', #549, 2.500000000000000444 ) ;
#896 = CARTESIAN_POINT ( 'NONE',  ( -15.00000000000000000, 0.000000000000000000, 0.000000000000000000 ) ) ;
#897 = ORIENTED_EDGE ( 'NONE', *, *, #688, .T. ) ;
#898 = VERTEX_POINT ( 'NONE', #618 ) ;
#899 = AXIS2_PLACEMENT_3D ( 'NONE', #225, #151, #373 ) ;
#900 = CIRCLE ( 'NONE', #489, 11.00000000000000000 ) ;
#901 = DIRECTION ( 'NONE',  ( -0.000000000000000000, -1.000000000000000000, -0.000000000000000000 ) ) ;
#902 = AXIS2_PLACEMENT_3D ( 'NONE', #593, #234, #574 ) ;
#903 = CARTESIAN_POINT ( 'NONE',  ( 19.95961698608723367, 10.00000000000000000, 15.73696919204314248 ) ) ;
#904 = VERTEX_POINT ( 'NONE', #166 ) ;
#905 = EDGE_CURVE ( 'NONE', #573, #573, #435, .T. ) ;
#906 = DIRECTION ( 'NONE',  ( 0.000000000000000000, 1.000000000000000000, 0.000000000000000000 ) ) ;
#907 = ORIENTED_EDGE ( 'NONE', *, *, #832, .F. ) ;
#908 = CARTESIAN_POINT ( 'NONE',  ( -5.058019801410941874, 10.00000000000000000, 18.00000000000000355 ) ) ;
#909 = ORIENTED_EDGE ( 'NONE', *, *, #257, .F. ) ;
#910 = FILL_AREA_STYLE_COLOUR ( '', #406 ) ;
#911 = EDGE_CURVE ( 'NONE', #551, #551, #39, .T. ) ;
#912 = DIRECTION ( 'NONE',  ( 0.000000000000000000, 0.000000000000000000, 1.000000000000000000 ) ) ;
#913 = CIRCLE ( 'NONE', #564, 11.00000000000000000 ) ;
#914 = FACE_BOUND ( 'NONE', #119, .T. ) ;
#915 = CIRCLE ( 'NONE', #673, 5.000000000000000000 ) ;
#916 = AXIS2_PLACEMENT_3D ( 'NONE', #545, #249, #261 ) ;
#917 = ORIENTED_EDGE ( 'NONE', *, *, #257, .T. ) ;
#918 = PLANE ( 'NONE',  #142 ) ;
#919 = CARTESIAN_POINT ( 'NONE',  ( -7.746877602391739615, 8.226048032977276492, 13.07257493707010276 ) ) ;
#920 = VERTEX_POINT ( 'NONE', #739 ) ;
#921 = CARTESIAN_POINT ( 'NONE',  ( 0.000000000000000000, 0.000000000000000000, 0.000000000000000000 ) ) ;
#922 = CYLINDRICAL_SURFACE ( 'NONE', #81, 5.199999999999999289 ) ;
#923 = FACE_OUTER_BOUND ( 'NONE', #525, .T. ) ;
#924 = EDGE_CURVE ( 'NONE', #115, #115, #478, .T. ) ;
#925 = EDGE_LOOP ( 'NONE', ( #290, #20, #885, #362 ) ) ;
#926 = EDGE_CURVE ( 'NONE', #87, #708, #437, .T. ) ;
#927 = FACE_BOUND ( 'NONE', #153, .T. ) ;
#928 = CARTESIAN_POINT ( 'NONE',  ( 6.945996091403636719, 10.00000000000000000, 6.000000000000002665 ) ) ;
#929 = AXIS2_PLACEMENT_3D ( 'NONE', #121, #416, #339 ) ;
#930 = ORIENTED_EDGE ( 'NONE', *, *, #616, .T. ) ;
#931 = ORIENTED_EDGE ( 'NONE', *, *, #372, .T. ) ;
#932 = DIRECTION ( 'NONE',  ( -0.000000000000000000, -1.000000000000000000, -0.000000000000000000 ) ) ;
#933 = DIRECTION ( 'NONE',  ( -0.000000000000000000, -0.8660254037844358210, -0.5000000000000051070 ) ) ;
#934 = DIRECTION ( 'NONE',  ( -0.000000000000000000, -1.000000000000000000, -0.000000000000000000 ) ) ;
#935 = EDGE_LOOP ( 'NONE', ( #486 ) ) ;
#936 = CARTESIAN_POINT ( 'NONE',  ( -15.00000000000000000, 0.4999999999999935052, 0.000000000000000000 ) ) ;
#937 = DIRECTION ( 'NONE',  ( 0.000000000000000000, -0.5000000000000003331, 0.8660254037844384856 ) ) ;
#938 = ORIENTED_EDGE ( 'NONE', *, *, #472, .T. ) ;
#939 = FACE_OUTER_BOUND ( 'NONE', #247, .T. ) ;
ENDSEC;
END-ISO-10303-21;
